<svg width="19" height="18" viewBox="0 0 19 18" fill="none" xmlns="http://www.w3.org/2000/svg">
<path d="M18.3302 4.31379C18.153 3.53894 17.8259 2.81846 17.3488 2.16596C16.8672 1.51345 16.2583 0.98329 15.5313 0.593599C14.7953 0.199377 13.9774 0 13.0914 0C12.1281 0 11.2966 0.271877 10.6151 0.811101C10.1516 1.1736 9.69271 1.63126 9.25197 2.17502C8.81578 1.64939 8.34778 1.19626 7.85706 0.824695C6.43489 -0.249221 4.44022 -0.203908 2.96807 0.580005C2.25471 0.956102 1.64131 1.48173 1.15969 2.1433C0.6826 2.79128 0.346368 3.51628 0.15099 4.33191C-0.0671066 5.48286 -0.0489319 6.58397 0.205514 7.63523C0.587182 8.88133 1.27782 10.0731 2.26834 11.1832C3.03622 12.0351 3.89043 12.8734 4.80826 13.6845C5.72153 14.4865 6.98013 15.5197 8.5477 16.7567L8.89756 17.0331C9.00207 17.1192 9.12475 17.16 9.25197 17.16C9.38374 17.16 9.5155 17.1147 9.62001 17.0241C10.0244 16.6797 10.4379 16.3217 10.8559 15.9547C11.2648 15.5967 11.6919 15.2387 12.1417 14.8762C13.1959 13.9972 14.0365 13.2767 14.6544 12.7193C15.2951 12.1484 15.8221 11.6273 16.2129 11.1787C17.2261 10.0323 17.9213 8.83602 18.2802 7.60804C18.5302 6.63381 18.5483 5.53724 18.3302 4.30926V4.31379Z" fill="#55ADBD"/>
</svg>
