<svg width="98" height="41" viewBox="0 0 98 41" fill="none" xmlns="http://www.w3.org/2000/svg">
<g clip-path="url(#clip0_225_55900)">
<path d="M75.8258 11.7657C75.8258 7.69971 72.6982 0 61.2009 0C50.8373 0 45.957 5.68274 45.957 10.9253C45.957 15.3274 49.1972 19.5134 55.8302 19.5534L56.1036 18.2328C51.577 18.1447 49.2534 15.0152 49.2534 11.4455C49.2534 6.73124 53.2493 1.0485 61.4663 1.36066C78.9935 2.02498 71.7414 20.834 64.3687 21.1382L64.1918 21.9306C64.1918 21.9306 65.9044 22.2827 67.1747 23.2992C68.8872 24.6199 69.9887 26.6929 69.9887 29.4702C69.9887 34.6727 65.9044 39.2909 60.6783 39.2909C56.6342 39.2909 53.5629 36.6016 53.5629 32.5517C53.5629 29.2061 55.8061 26.7809 58.2181 26.7809C60.6301 26.7809 61.2411 29.078 60.2844 30.3026C60.5015 30.5667 60.8954 30.7028 61.2492 30.7028C62.0371 30.7028 62.8733 30.1665 62.9617 28.9339C63.0019 27.7414 62.4311 27.093 61.5145 26.5648C61.0321 26.2526 60.9437 26.1246 60.9839 25.4603C61.1607 23.9635 63.6853 12.1178 63.6853 12.1178C64.0954 10.397 65.3576 9.20443 66.8933 8.98833L67.0862 8.14792L59.2231 8.23597L59.0301 9.06837C60.5979 9.27647 60.7025 10.9973 60.4854 11.9738C60.4854 11.9738 57.8643 24.4918 57.7357 25.1081C57.607 25.7244 57.3819 25.9005 56.7226 25.9885C53.5147 26.7409 50.7087 29.2941 50.7087 32.9038C50.7087 38.0583 55.2352 40.5715 60.8552 40.6596C66.041 40.6996 72.8027 37.6661 73.2851 30.1265C73.5022 26.2046 70.4711 23.0751 67.4882 21.9306C72.3605 20.6099 75.8338 16.688 75.8338 11.7577L75.8258 11.7657Z" fill="#55ADBD"/>
<path d="M2.74165 13.6172H0V31.0016H11.1113V28.4643H2.74165V13.6172Z" fill="#55ADBD"/>
<path d="M15.9439 12.7734C14.9791 12.7734 14.1992 13.5818 14.1992 14.5663C14.1992 15.5508 14.9952 16.3191 15.9439 16.3191C16.8926 16.3191 17.7288 15.5348 17.7288 14.5663C17.7288 13.5978 16.9248 12.7734 15.9439 12.7734Z" fill="#55ADBD"/>
<path d="M17.3354 18.7266H14.5938V30.9965H17.3354V18.7266Z" fill="#55ADBD"/>
<path d="M23.5581 13.6172H20.8164V31.0016H23.5581V13.6172Z" fill="#55ADBD"/>
<path d="M97.5422 28.6564C96.9955 28.8165 96.5453 28.8965 96.1754 28.8965C95.7734 28.8965 95.4518 28.8005 95.1865 28.6164C94.6237 28.2082 94.3745 27.3678 94.3745 25.9031V13.6172H91.6328V26.5594C91.6328 28.7525 92.3484 30.2892 93.6991 31.0176C94.286 31.3377 94.9694 31.4978 95.7172 31.4978C96.6578 31.4978 97.5262 31.2337 97.9925 30.9615L97.5342 28.6484L97.5422 28.6564Z" fill="#55ADBD"/>
<path d="M28.9617 23.246L32.837 17.2031H29.5004L25.0703 24.2385L25.3356 24.5667C29.0421 24.8388 30.4652 28.1684 30.5617 31.0018H33.5284C33.5526 29.2729 33.0541 27.4641 32.0491 25.8713C30.8591 23.9904 28.9617 23.246 28.9617 23.246Z" fill="#55ADBD"/>
<path d="M41.3161 17.1567C36.6047 17.1967 34.5625 21.2466 34.5625 24.3281V24.3681C34.5625 28.5622 37.5212 31.4916 41.7503 31.4916C43.8809 31.4916 45.6417 30.7872 46.9763 29.4026L45.3844 27.9459C44.2909 28.8343 43.2859 29.2665 41.7985 29.2665C37.3524 29.2665 37.3765 25.2806 37.3765 25.2806H47.8125C47.9572 21.1746 46.1964 17.1086 41.3161 17.1567ZM37.4971 23.3437C37.4971 23.3036 37.5936 19.2537 41.3885 19.2537C45.1834 19.2537 45.2879 23.3437 45.2879 23.3437H37.4891H37.4971Z" fill="#55ADBD"/>
<path d="M82.57 17.1567C77.8586 17.1967 75.8164 21.2466 75.8164 24.3281V24.3681C75.8164 28.5622 78.7751 31.4916 83.0042 31.4916C85.1348 31.4916 86.8956 30.7872 88.2302 29.4026L86.6383 27.9459C85.5448 28.8343 84.5398 29.2665 83.0524 29.2665C78.6063 29.2665 78.6304 25.2806 78.6304 25.2806H89.0664C89.2111 21.1746 87.4503 17.1086 82.57 17.1567ZM78.743 23.3437C78.743 23.3036 78.8395 19.2537 82.6344 19.2537C86.4292 19.2537 86.5338 23.3437 86.5338 23.3437H78.7349H78.743Z" fill="#55ADBD"/>
</g>
<defs>
<clipPath id="clip0_225_55900">
<rect width="98" height="40.6596" fill="white"/>
</clipPath>
</defs>
</svg>
