<svg width="58" height="63" viewBox="0 0 58 63" fill="none" xmlns="http://www.w3.org/2000/svg">
<path d="M49.3006 45.2548L27.8166 63V33.2899L49.3006 45.2548Z" fill="#55ADBD"/>
<path d="M58 26.4001C58 40.9805 45.0163 52.8002 29 52.8002C12.9837 52.8002 0 40.9805 0 26.4001C0 11.8197 12.9837 0 29 0C45.0163 0 58 11.8197 58 26.4001Z" fill="#55ADBD"/>
<path d="M19.5179 26.0502V27.1376H15.792V28.828H14.4233V27.1376H10.4693V26.0502H19.5179ZM18.3556 21.6359V25.2427H11.599V21.6359H18.3556ZM12.9568 22.7018V24.1768H16.9977V22.7018H12.9568ZM18.5185 29.7324V30.8306H11.5339V27.9774H12.9134V29.7324H18.5185Z" fill="#55ADBD"/>
<path d="M23.298 21.862C24.8622 21.8512 26.0354 22.8633 26.0354 24.2629C26.0354 25.6734 24.8622 26.6746 23.298 26.6746C21.7338 26.6746 20.5498 25.6734 20.5498 24.2629C20.5498 22.8633 21.7338 21.8512 23.298 21.862ZM23.298 23.0463C22.5159 23.0463 21.9185 23.4985 21.9293 24.2629C21.9185 25.0381 22.5159 25.4796 23.298 25.4796C24.0801 25.4796 24.6776 25.0381 24.6884 24.2629C24.6776 23.4985 24.091 23.0463 23.298 23.0463ZM28.4034 21.2052V31.0243H27.0239V21.2052H28.4034ZM20.137 27.902C21.8968 27.9128 24.3408 27.8805 26.459 27.5898L26.5677 28.5803C24.3734 29.0002 22.0271 29.0218 20.3 29.0218L20.137 27.902Z" fill="#55ADBD"/>
<path d="M37.5063 21.2052V25.0381H38.9619V26.1686H37.5063V31.0028H36.1376V26.104V21.2052H37.5063ZM35.4641 22.6695V23.7677H29.6526V22.6695H31.8903V21.356H33.2807V22.6695H35.4641ZM32.5855 24.3168C34.0303 24.3168 35.1057 25.2858 35.1057 26.6531C35.1057 28.0205 34.0303 28.9895 32.5855 28.9895C31.13 28.9895 30.0546 28.0205 30.0546 26.6531C30.0546 25.2858 31.13 24.3168 32.5855 24.3168ZM32.5855 25.4257C31.8903 25.4365 31.3798 25.8995 31.3798 26.6531C31.3798 27.4175 31.8903 27.8697 32.5855 27.859C33.2807 27.8697 33.7804 27.4175 33.7804 26.6531C33.7804 25.8995 33.2807 25.4365 32.5855 25.4257Z" fill="#55ADBD"/>
<path d="M47.6302 21.2052V31.0028H46.229V21.2052H47.6302ZM44.6647 22.228C44.6647 25.1996 43.6111 27.6652 40.0807 29.3232L39.3529 28.225C41.9056 27.0299 43.0299 25.4796 43.2526 23.3047H39.8852V22.228H44.6647Z" fill="#55ADBD"/>
<path d="M6.5 27.25H16.9875V28.5625H6.5V27.25ZM11.05 28.075H12.7125V30.5125H11.05V28.075ZM7.7875 22.0125H15.65V26.325H7.7875V22.0125ZM14.0125 23.3125H9.425V25.0125H14.0125V23.3125ZM7.7125 31.575H15.825V32.9125H7.7125V31.575ZM7.7125 29.5375H9.375V32.025H7.7125V29.5375ZM21.7365 22.3C22.3365 22.3 22.8782 22.4208 23.3615 22.6625C23.8449 22.9042 24.224 23.2417 24.499 23.675C24.774 24.1 24.9115 24.5917 24.9115 25.15C24.9115 25.7 24.774 26.1917 24.499 26.625C24.224 27.0583 23.8449 27.3958 23.3615 27.6375C22.8782 27.8792 22.3365 28 21.7365 28C21.1282 28 20.5824 27.8792 20.099 27.6375C19.6157 27.3958 19.2324 27.0583 18.949 26.625C18.674 26.1917 18.5365 25.7 18.5365 25.15C18.5365 24.5917 18.674 24.1 18.949 23.675C19.2324 23.2417 19.6157 22.9042 20.099 22.6625C20.5824 22.4208 21.1282 22.3 21.7365 22.3ZM21.7365 23.725C21.4365 23.725 21.1657 23.7833 20.924 23.9C20.6907 24.0083 20.5032 24.1708 20.3615 24.3875C20.2282 24.5958 20.1615 24.85 20.1615 25.15C20.1615 25.45 20.2282 25.7083 20.3615 25.925C20.5032 26.1417 20.6907 26.3083 20.924 26.425C21.1657 26.5333 21.4365 26.5875 21.7365 26.5875C22.0282 26.5875 22.2907 26.5333 22.524 26.425C22.7574 26.3083 22.9407 26.1417 23.074 25.925C23.2157 25.7083 23.2865 25.45 23.2865 25.15C23.2865 24.85 23.2157 24.5958 23.074 24.3875C22.9407 24.1708 22.7574 24.0083 22.524 23.9C22.2907 23.7833 22.0282 23.725 21.7365 23.725ZM25.999 21.5125H27.6615V33.125H25.999V21.5125ZM18.249 30.7875L18.0615 29.4375C18.7365 29.4375 19.4824 29.4333 20.299 29.425C21.124 29.4083 21.9699 29.375 22.8365 29.325C23.7115 29.2667 24.5574 29.1792 25.374 29.0625L25.4865 30.2625C24.6532 30.4292 23.8074 30.55 22.949 30.625C22.0907 30.6917 21.2615 30.7375 20.4615 30.7625C19.6615 30.7792 18.924 30.7875 18.249 30.7875ZM36.923 21.5375H38.5855V33.1125H36.923V21.5375ZM38.2105 26.05H40.248V27.425H38.2105V26.05ZM29.448 23.2375H36.198V24.5625H29.448V23.2375ZM32.848 25.225C33.4064 25.225 33.9064 25.3458 34.348 25.5875C34.7897 25.8208 35.1355 26.1417 35.3855 26.55C35.6439 26.9583 35.773 27.4333 35.773 27.975C35.773 28.5167 35.6439 28.9958 35.3855 29.4125C35.1355 29.8208 34.7897 30.1458 34.348 30.3875C33.9147 30.6208 33.4147 30.7375 32.848 30.7375C32.2897 30.7375 31.7855 30.6208 31.3355 30.3875C30.8939 30.1458 30.5439 29.8208 30.2855 29.4125C30.0355 28.9958 29.9105 28.5167 29.9105 27.975C29.9105 27.4333 30.0355 26.9583 30.2855 26.55C30.5439 26.1417 30.8939 25.8208 31.3355 25.5875C31.7855 25.3458 32.2897 25.225 32.848 25.225ZM32.848 26.575C32.5814 26.575 32.348 26.6292 32.148 26.7375C31.948 26.8458 31.7897 27.0042 31.673 27.2125C31.5564 27.4208 31.498 27.675 31.498 27.975C31.498 28.2667 31.5564 28.5208 31.673 28.7375C31.7897 28.9458 31.948 29.1083 32.148 29.225C32.348 29.3333 32.5814 29.3875 32.848 29.3875C33.1064 29.3875 33.3355 29.3333 33.5355 29.225C33.7355 29.1083 33.8939 28.9458 34.0105 28.7375C34.1272 28.5208 34.1855 28.2667 34.1855 27.975C34.1855 27.675 34.1272 27.4208 34.0105 27.2125C33.8939 27.0042 33.7355 26.8458 33.5355 26.7375C33.3355 26.6292 33.1064 26.575 32.848 26.575ZM31.998 21.725H33.673V23.75H31.998V21.725ZM48.9846 21.525H50.6471V33.1H48.9846V21.525ZM45.5721 22.725H47.2096C47.2096 23.6083 47.1221 24.4542 46.9471 25.2625C46.7804 26.0625 46.4971 26.8167 46.0971 27.525C45.7054 28.2333 45.1637 28.8917 44.4721 29.5C43.7887 30.1 42.9346 30.65 41.9096 31.15L41.0346 29.8375C42.1512 29.2958 43.0387 28.7 43.6971 28.05C44.3637 27.3917 44.8429 26.65 45.1346 25.825C45.4262 24.9917 45.5721 24.0583 45.5721 23.025V22.725ZM41.6596 22.725H46.3471V24.05H41.6596V22.725Z" fill="white"/>
</svg>
