<svg width="944" height="20" viewBox="0 0 944 20" fill="none" xmlns="http://www.w3.org/2000/svg">
<path d="M2.752 15.5L0.368 4.94H2.88L4.448 13.532H4.624L6.48 4.94H9.408L11.264 13.532H11.456L13.024 4.94H15.408L12.992 15.5H9.776L7.984 6.908H7.84L6.048 15.5H2.752ZM16.8372 15.5V10.22V4.06H19.1573V6.684C19.1573 6.89733 19.1466 7.12133 19.1253 7.356C19.1146 7.59067 19.0879 7.83067 19.0453 8.076C19.0133 8.31067 18.9759 8.55067 18.9333 8.796C18.9013 9.04133 18.8639 9.28667 18.8213 9.532H19.1733C19.3226 8.988 19.5093 8.51867 19.7333 8.124C19.9679 7.72933 20.2666 7.42533 20.6293 7.212C20.9919 6.988 21.4506 6.876 22.0053 6.876C22.9866 6.876 23.7226 7.22267 24.2133 7.916C24.7039 8.59867 24.9493 9.64933 24.9493 11.068V15.5H22.6293V11.42C22.6293 10.524 22.4959 9.86267 22.2293 9.436C21.9733 8.99867 21.5839 8.78 21.0613 8.78C20.6346 8.78 20.2826 8.908 20.0052 9.164C19.7279 9.42 19.5199 9.76667 19.3813 10.204C19.2426 10.6307 19.1626 11.1107 19.1413 11.644V15.5H16.8372ZM28.899 15.724C28.4297 15.724 28.0137 15.6333 27.651 15.452C27.2883 15.26 27.0057 14.988 26.803 14.636C26.6003 14.284 26.499 13.8467 26.499 13.324C26.499 12.8653 26.5843 12.4813 26.755 12.172C26.9363 11.8627 27.1977 11.612 27.539 11.42C27.8803 11.228 28.3017 11.068 28.803 10.94C29.3043 10.812 29.875 10.7 30.515 10.604C30.8563 10.5507 31.1337 10.5027 31.347 10.46C31.571 10.4067 31.7363 10.3267 31.843 10.22C31.9497 10.1027 32.003 9.93733 32.003 9.724C32.003 9.42533 31.8963 9.16933 31.683 8.956C31.4697 8.74267 31.1337 8.636 30.675 8.636C30.3657 8.636 30.0777 8.68933 29.811 8.796C29.555 8.90267 29.331 9.06267 29.139 9.276C28.9577 9.48933 28.8243 9.76133 28.739 10.092L26.707 9.468C26.835 9.03067 27.0163 8.652 27.251 8.332C27.4963 8.012 27.7897 7.74533 28.131 7.532C28.4723 7.308 28.8617 7.14267 29.299 7.036C29.7363 6.92933 30.211 6.876 30.723 6.876C31.5443 6.876 32.211 7.00933 32.723 7.276C33.2457 7.532 33.635 7.93733 33.891 8.492C34.147 9.036 34.275 9.74 34.275 10.604V12.044C34.275 12.4173 34.2803 12.796 34.291 13.18C34.3123 13.564 34.3337 13.9533 34.355 14.348C34.387 14.732 34.419 15.116 34.451 15.5H32.419C32.3763 15.2333 32.3337 14.9293 32.291 14.588C32.259 14.236 32.2323 13.884 32.211 13.532H31.923C31.7737 13.9373 31.5603 14.3053 31.283 14.636C31.0057 14.9667 30.6643 15.2333 30.259 15.436C29.8643 15.628 29.411 15.724 28.899 15.724ZM29.875 14.06C30.0777 14.06 30.2803 14.0227 30.483 13.948C30.6963 13.8733 30.899 13.772 31.091 13.644C31.2937 13.5053 31.475 13.3347 31.635 13.132C31.8057 12.9293 31.9443 12.7 32.051 12.444L32.019 11.1L32.387 11.18C32.195 11.3187 31.971 11.4307 31.715 11.516C31.459 11.5907 31.1923 11.6493 30.915 11.692C30.6483 11.7347 30.3817 11.7827 30.115 11.836C29.8483 11.8893 29.6083 11.9587 29.395 12.044C29.1923 12.1293 29.027 12.2467 28.899 12.396C28.7817 12.5347 28.723 12.732 28.723 12.988C28.723 13.3187 28.8297 13.58 29.043 13.772C29.2563 13.964 29.5337 14.06 29.875 14.06ZM39.4104 15.692C38.4717 15.692 37.7784 15.4467 37.3304 14.956C36.893 14.4547 36.6744 13.66 36.6744 12.572V8.908H35.4584L35.4904 7.1H36.3384C36.669 7.1 36.9144 7.052 37.0744 6.956C37.2344 6.86 37.3304 6.684 37.3624 6.428L37.5704 5.228H38.8824V7.1H41.0104V8.972H38.8824V12.476C38.8824 12.86 38.973 13.1373 39.1544 13.308C39.3357 13.4787 39.613 13.564 39.9864 13.564C40.189 13.564 40.381 13.5427 40.5624 13.5C40.7544 13.4573 40.9197 13.388 41.0584 13.292V15.436C40.7277 15.5427 40.4237 15.612 40.1464 15.644C39.869 15.676 39.6237 15.692 39.4104 15.692ZM42.0533 8.14C42.2453 7.64933 42.3786 7.19067 42.4533 6.764C42.5386 6.33733 42.5866 5.91067 42.5973 5.484C42.6186 5.04667 42.6293 4.572 42.6293 4.06H44.7413C44.7413 4.78533 44.6986 5.40933 44.6133 5.932C44.5279 6.444 44.4106 6.88133 44.2613 7.244C44.1226 7.596 43.9786 7.89467 43.8293 8.14H42.0533ZM49.1348 15.724C48.5694 15.724 48.0574 15.6707 47.5988 15.564C47.1401 15.4573 46.7454 15.3027 46.4148 15.1C46.0841 14.8973 45.8174 14.6573 45.6148 14.38C45.4121 14.092 45.2788 13.772 45.2148 13.42L46.9748 12.7C47.0174 12.9347 47.1348 13.1533 47.3268 13.356C47.5188 13.5587 47.7748 13.724 48.0948 13.852C48.4254 13.9693 48.8201 14.028 49.2788 14.028C49.7694 14.028 50.1481 13.9587 50.4148 13.82C50.6814 13.6707 50.8148 13.4627 50.8148 13.196C50.8148 12.9933 50.7401 12.8333 50.5908 12.716C50.4414 12.5987 50.2228 12.4973 49.9348 12.412C49.6468 12.3267 49.3001 12.2467 48.8948 12.172C48.5001 12.076 48.0948 11.9747 47.6788 11.868C47.2734 11.7613 46.8948 11.612 46.5428 11.42C46.2014 11.228 45.9188 10.9773 45.6948 10.668C45.4814 10.348 45.3748 9.94267 45.3748 9.452C45.3748 8.94 45.5134 8.492 45.7908 8.108C46.0681 7.724 46.4734 7.42533 47.0068 7.212C47.5401 6.988 48.1908 6.876 48.9588 6.876C49.6521 6.876 50.2601 6.972 50.7828 7.164C51.3054 7.34533 51.7321 7.612 52.0628 7.964C52.4041 8.30533 52.6334 8.716 52.7508 9.196L50.8788 9.82C50.8361 9.564 50.7294 9.34 50.5588 9.148C50.3988 8.956 50.1801 8.812 49.9028 8.716C49.6361 8.62 49.3214 8.572 48.9588 8.572C48.5001 8.572 48.1428 8.64667 47.8868 8.796C47.6414 8.94533 47.5188 9.14267 47.5188 9.388C47.5188 9.59067 47.5988 9.756 47.7588 9.884C47.9294 10.012 48.1641 10.1187 48.4628 10.204C48.7614 10.2787 49.1134 10.3587 49.5188 10.444C49.9454 10.5293 50.3614 10.6307 50.7668 10.748C51.1721 10.8547 51.5348 10.9987 51.8548 11.18C52.1854 11.3613 52.4468 11.6013 52.6388 11.9C52.8308 12.1987 52.9268 12.5827 52.9268 13.052C52.9268 13.6067 52.7774 14.0867 52.4788 14.492C52.1801 14.8867 51.7481 15.1907 51.1828 15.404C50.6174 15.6173 49.9348 15.724 49.1348 15.724ZM58.2774 15.5V4.94H61.2854L66.0694 12.412H66.2454L66.1014 4.94H68.3414V15.5H65.6214L60.5654 7.676H60.3894L60.5334 15.5H58.2774ZM74.4756 15.724C73.7823 15.724 73.1636 15.628 72.6196 15.436C72.0863 15.244 71.633 14.9667 71.2596 14.604C70.8863 14.2413 70.5983 13.7933 70.3956 13.26C70.2036 12.7267 70.1076 12.124 70.1076 11.452C70.1076 10.7907 70.1983 10.1827 70.3796 9.628C70.5716 9.06267 70.849 8.57733 71.2116 8.172C71.5743 7.756 72.017 7.436 72.5396 7.212C73.0623 6.988 73.6543 6.876 74.3156 6.876C74.9556 6.876 75.5263 6.98267 76.0276 7.196C76.529 7.39867 76.945 7.708 77.2756 8.124C77.617 8.54 77.8623 9.052 78.0116 9.66C78.1716 10.2573 78.2303 10.9453 78.1876 11.724L71.5956 11.788V10.524L76.8596 10.476L76.0436 11.116C76.1183 10.5507 76.081 10.0867 75.9316 9.724C75.7823 9.36133 75.5636 9.09467 75.2756 8.924C74.9983 8.75333 74.689 8.668 74.3476 8.668C73.9423 8.668 73.585 8.77467 73.2756 8.988C72.9663 9.20133 72.7263 9.516 72.5556 9.932C72.385 10.3373 72.2996 10.828 72.2996 11.404C72.2996 12.3107 72.497 12.9773 72.8916 13.404C73.297 13.8307 73.825 14.044 74.4756 14.044C74.7743 14.044 75.025 14.0067 75.2276 13.932C75.441 13.8467 75.6116 13.74 75.7396 13.612C75.8783 13.484 75.985 13.34 76.0596 13.18C76.145 13.02 76.2143 12.86 76.2676 12.7L78.2676 13.132C78.1716 13.5267 78.0276 13.884 77.8356 14.204C77.6543 14.5133 77.409 14.7853 77.0996 15.02C76.7903 15.244 76.417 15.4147 75.9796 15.532C75.553 15.66 75.0516 15.724 74.4756 15.724ZM81.1325 15.5L79.0525 7.1H81.4525L82.6365 13.676H82.9405L84.3485 7.1H87.1165L88.5725 13.676H88.8765L90.0285 7.1H92.3805L90.2845 15.5H87.1165L85.8045 8.972H85.5325L84.2845 15.5H81.1325ZM97.4805 15.5V4.94H100.953L103.897 12.892H103.977L106.857 4.94H110.169V15.5H107.977L108.121 7.276H107.945L104.745 15.5H102.825L99.6725 7.276H99.4965L99.6405 15.5H97.4805ZM116.304 15.724C115.61 15.724 114.992 15.628 114.448 15.436C113.914 15.244 113.461 14.9667 113.088 14.604C112.714 14.2413 112.426 13.7933 112.224 13.26C112.032 12.7267 111.936 12.124 111.936 11.452C111.936 10.7907 112.026 10.1827 112.208 9.628C112.4 9.06267 112.677 8.57733 113.04 8.172C113.402 7.756 113.845 7.436 114.368 7.212C114.89 6.988 115.482 6.876 116.144 6.876C116.784 6.876 117.354 6.98267 117.856 7.196C118.357 7.39867 118.773 7.708 119.104 8.124C119.445 8.54 119.69 9.052 119.84 9.66C120 10.2573 120.058 10.9453 120.016 11.724L113.424 11.788V10.524L118.688 10.476L117.872 11.116C117.946 10.5507 117.909 10.0867 117.76 9.724C117.61 9.36133 117.392 9.09467 117.104 8.924C116.826 8.75333 116.517 8.668 116.176 8.668C115.77 8.668 115.413 8.77467 115.104 8.988C114.794 9.20133 114.554 9.516 114.384 9.932C114.213 10.3373 114.128 10.828 114.128 11.404C114.128 12.3107 114.325 12.9773 114.72 13.404C115.125 13.8307 115.653 14.044 116.304 14.044C116.602 14.044 116.853 14.0067 117.056 13.932C117.269 13.8467 117.44 13.74 117.568 13.612C117.706 13.484 117.813 13.34 117.888 13.18C117.973 13.02 118.042 12.86 118.096 12.7L120.096 13.132C120 13.5267 119.856 13.884 119.664 14.204C119.482 14.5133 119.237 14.7853 118.928 15.02C118.618 15.244 118.245 15.4147 117.808 15.532C117.381 15.66 116.88 15.724 116.304 15.724ZM125.992 12.108C125.939 11.6173 125.965 11.212 126.072 10.892C126.179 10.572 126.328 10.3053 126.52 10.092C126.712 9.87867 126.92 9.69733 127.144 9.548C127.379 9.388 127.597 9.23333 127.8 9.084C128.013 8.93467 128.184 8.764 128.312 8.572C128.451 8.36933 128.52 8.11867 128.52 7.82C128.52 7.41467 128.392 7.116 128.136 6.924C127.891 6.732 127.565 6.636 127.16 6.636C126.915 6.636 126.653 6.668 126.376 6.732C126.109 6.796 125.843 6.88667 125.576 7.004C125.309 7.12133 125.048 7.26 124.792 7.42L124.664 5.452C124.952 5.28133 125.251 5.14267 125.56 5.036C125.869 4.92933 126.184 4.84933 126.504 4.796C126.824 4.732 127.133 4.7 127.432 4.7C127.88 4.7 128.307 4.75867 128.712 4.876C129.117 4.99333 129.469 5.17467 129.768 5.42C130.077 5.65467 130.323 5.948 130.504 6.3C130.685 6.652 130.776 7.07333 130.776 7.564C130.776 8.012 130.701 8.38533 130.552 8.684C130.403 8.98267 130.211 9.23867 129.976 9.452C129.752 9.66533 129.512 9.85733 129.256 10.028C129 10.1987 128.76 10.3747 128.536 10.556C128.312 10.7373 128.131 10.9507 127.992 11.196C127.864 11.4413 127.811 11.7453 127.832 12.108H125.992ZM127.016 15.708C126.515 15.708 126.136 15.6013 125.88 15.388C125.635 15.1747 125.512 14.844 125.512 14.396C125.512 13.9373 125.635 13.6013 125.88 13.388C126.136 13.1747 126.515 13.068 127.016 13.068C127.528 13.068 127.907 13.1747 128.152 13.388C128.408 13.6013 128.536 13.9373 128.536 14.396C128.536 15.2707 128.029 15.708 127.016 15.708Z" fill="#55ADBD"/>
<path d="M172.595 5.02773C172.396 4.12464 172.029 3.28492 171.493 2.52443C170.952 1.76393 170.268 1.14603 169.451 0.691841C168.624 0.232374 167.705 0 166.709 0C165.627 0 164.693 0.316873 163.927 0.945339C163.406 1.36784 162.891 1.90124 162.395 2.53499C161.905 1.92237 161.379 1.39424 160.828 0.961183C159.23 -0.290467 156.989 -0.237655 155.335 0.675997C154.533 1.11434 153.844 1.72696 153.303 2.49802C152.767 3.25323 152.389 4.09823 152.17 5.04885C151.925 6.39028 151.945 7.67362 152.231 8.89886C152.66 10.3512 153.436 11.7402 154.549 13.0341C155.411 14.0269 156.371 15.004 157.402 15.9493C158.429 16.8841 159.843 18.0882 161.604 19.53L161.997 19.8521C162.115 19.9525 162.252 20 162.395 20C162.543 20 162.691 19.9472 162.809 19.8416C163.263 19.4402 163.728 19.023 164.197 18.5952C164.657 18.178 165.137 17.7608 165.642 17.3383C166.827 16.3137 167.771 15.474 168.465 14.8244C169.185 14.159 169.777 13.5516 170.216 13.0288C171.355 11.6926 172.136 10.2984 172.539 8.86718C172.82 7.73171 172.841 6.45366 172.595 5.02245V5.02773ZM169.042 9.28134C168.782 10.2161 168.261 11.1117 167.516 11.9884C167.23 12.3317 166.842 12.7278 166.372 13.1661C165.913 13.5886 165.3 14.1378 164.524 14.8086C164.192 15.0832 163.881 15.3578 163.58 15.6324C163.273 15.9123 162.967 16.187 162.671 16.4457C162.594 16.5144 162.497 16.5514 162.4 16.5514C162.303 16.5514 162.217 16.5197 162.14 16.4563L161.885 16.2451C160.731 15.2997 159.807 14.5128 159.138 13.9002C158.459 13.2823 157.831 12.6433 157.27 11.9937C156.54 11.1487 156.034 10.235 155.753 9.28439C155.565 8.48165 155.549 7.64193 155.713 6.76525C155.856 6.14207 156.106 5.58754 156.453 5.09638C156.81 4.59467 157.26 4.19329 157.785 3.90283C158.868 3.30605 160.333 3.26908 161.379 4.08767C161.742 4.37285 162.084 4.71613 162.406 5.11751C162.732 4.70557 163.069 4.35173 163.411 4.07711C163.912 3.66517 164.524 3.4592 165.229 3.4592C165.877 3.4592 166.479 3.61236 167.021 3.91339C167.557 4.21442 168.006 4.61579 168.358 5.11223C168.71 5.60866 168.95 6.15791 169.078 6.74941C169.236 7.68418 169.226 8.5239 169.042 9.26327V9.28134Z" fill="#55ADBD"/>
<path d="M166.017 7.01886C165.802 6.71783 165.527 6.46961 165.205 6.29005C164.873 6.10521 164.506 6.01542 164.112 6.01542C163.684 6.01542 163.311 6.14217 163.005 6.39039C162.795 6.55939 162.591 6.77064 162.392 7.02414C162.198 6.7812 161.989 6.56995 161.769 6.39567C161.131 5.89396 160.238 5.92036 159.579 6.28477C159.257 6.45905 158.987 6.70198 158.767 7.01358C158.553 7.31461 158.405 7.6526 158.318 8.02757C158.221 8.56098 158.226 9.07325 158.344 9.56441C158.512 10.1453 158.823 10.6999 159.268 11.2122C159.61 11.6082 159.993 11.9991 160.406 12.374C160.814 12.749 161.381 13.2296 162.081 13.8L162.239 13.9267C162.285 13.9637 162.341 13.9848 162.397 13.9848C162.458 13.9848 162.515 13.9637 162.56 13.9214C162.739 13.763 162.928 13.594 163.112 13.425C163.296 13.256 163.484 13.0923 163.689 12.9233C164.163 12.5113 164.536 12.1786 164.817 11.9198C165.103 11.6558 165.338 11.4128 165.516 11.2016C165.971 10.6682 166.282 10.1137 166.44 9.54328C166.553 9.0891 166.563 8.5821 166.461 8.01173C166.384 7.6526 166.236 7.31461 166.022 7.01358L166.017 7.01886ZM163.944 10.2827C163.214 10.7052 162.862 11.096 162.494 11.9251C162.448 12.0255 162.326 12.0255 162.28 11.9251C162.05 11.4128 161.83 11.0643 161.519 10.7791C161.478 10.7474 161.437 10.7157 161.402 10.6735C161.238 10.5362 161.049 10.4094 160.83 10.2827C160.743 10.2351 160.743 10.0925 160.83 10.045C161.56 9.6225 161.912 9.23169 162.28 8.40254C162.326 8.3022 162.448 8.3022 162.494 8.40254C162.867 9.23169 163.214 9.6225 163.944 10.045C164.031 10.0925 164.031 10.2351 163.944 10.2827Z" fill="#55ADBD"/>
<path d="M195.518 15.5L193.134 4.94H195.646L197.214 13.532H197.39L199.246 4.94H202.174L204.03 13.532H204.222L205.79 4.94H208.174L205.758 15.5H202.542L200.75 6.908H200.606L198.814 15.5H195.518ZM209.603 15.5V10.22V4.06H211.923V6.684C211.923 6.89733 211.912 7.12133 211.891 7.356C211.88 7.59067 211.854 7.83067 211.811 8.076C211.779 8.31067 211.742 8.55067 211.699 8.796C211.667 9.04133 211.63 9.28667 211.587 9.532H211.939C212.088 8.988 212.275 8.51867 212.499 8.124C212.734 7.72933 213.032 7.42533 213.395 7.212C213.758 6.988 214.216 6.876 214.771 6.876C215.752 6.876 216.488 7.22267 216.979 7.916C217.47 8.59867 217.715 9.64933 217.715 11.068V15.5H215.395V11.42C215.395 10.524 215.262 9.86267 214.995 9.436C214.739 8.99867 214.35 8.78 213.827 8.78C213.4 8.78 213.048 8.908 212.771 9.164C212.494 9.42 212.286 9.76667 212.147 10.204C212.008 10.6307 211.928 11.1107 211.907 11.644V15.5H209.603ZM221.665 15.724C221.195 15.724 220.779 15.6333 220.417 15.452C220.054 15.26 219.771 14.988 219.569 14.636C219.366 14.284 219.265 13.8467 219.265 13.324C219.265 12.8653 219.35 12.4813 219.521 12.172C219.702 11.8627 219.963 11.612 220.305 11.42C220.646 11.228 221.067 11.068 221.569 10.94C222.07 10.812 222.641 10.7 223.281 10.604C223.622 10.5507 223.899 10.5027 224.113 10.46C224.337 10.4067 224.502 10.3267 224.609 10.22C224.715 10.1027 224.769 9.93733 224.769 9.724C224.769 9.42533 224.662 9.16933 224.449 8.956C224.235 8.74267 223.899 8.636 223.441 8.636C223.131 8.636 222.843 8.68933 222.577 8.796C222.321 8.90267 222.097 9.06267 221.905 9.276C221.723 9.48933 221.59 9.76133 221.505 10.092L219.473 9.468C219.601 9.03067 219.782 8.652 220.017 8.332C220.262 8.012 220.555 7.74533 220.897 7.532C221.238 7.308 221.627 7.14267 222.065 7.036C222.502 6.92933 222.977 6.876 223.489 6.876C224.31 6.876 224.977 7.00933 225.489 7.276C226.011 7.532 226.401 7.93733 226.657 8.492C226.913 9.036 227.041 9.74 227.041 10.604V12.044C227.041 12.4173 227.046 12.796 227.057 13.18C227.078 13.564 227.099 13.9533 227.121 14.348C227.153 14.732 227.185 15.116 227.217 15.5H225.185C225.142 15.2333 225.099 14.9293 225.057 14.588C225.025 14.236 224.998 13.884 224.977 13.532H224.689C224.539 13.9373 224.326 14.3053 224.049 14.636C223.771 14.9667 223.43 15.2333 223.025 15.436C222.63 15.628 222.177 15.724 221.665 15.724ZM222.641 14.06C222.843 14.06 223.046 14.0227 223.249 13.948C223.462 13.8733 223.665 13.772 223.857 13.644C224.059 13.5053 224.241 13.3347 224.401 13.132C224.571 12.9293 224.71 12.7 224.817 12.444L224.785 11.1L225.153 11.18C224.961 11.3187 224.737 11.4307 224.481 11.516C224.225 11.5907 223.958 11.6493 223.681 11.692C223.414 11.7347 223.147 11.7827 222.881 11.836C222.614 11.8893 222.374 11.9587 222.161 12.044C221.958 12.1293 221.793 12.2467 221.665 12.396C221.547 12.5347 221.489 12.732 221.489 12.988C221.489 13.3187 221.595 13.58 221.809 13.772C222.022 13.964 222.299 14.06 222.641 14.06ZM232.176 15.692C231.237 15.692 230.544 15.4467 230.096 14.956C229.659 14.4547 229.44 13.66 229.44 12.572V8.908H228.224L228.256 7.1H229.104C229.435 7.1 229.68 7.052 229.84 6.956C230 6.86 230.096 6.684 230.128 6.428L230.336 5.228H231.648V7.1H233.776V8.972H231.648V12.476C231.648 12.86 231.739 13.1373 231.92 13.308C232.101 13.4787 232.379 13.564 232.752 13.564C232.955 13.564 233.147 13.5427 233.328 13.5C233.52 13.4573 233.685 13.388 233.824 13.292V15.436C233.493 15.5427 233.189 15.612 232.912 15.644C232.635 15.676 232.389 15.692 232.176 15.692ZM234.819 8.14C235.011 7.64933 235.144 7.19067 235.219 6.764C235.304 6.33733 235.352 5.91067 235.363 5.484C235.384 5.04667 235.395 4.572 235.395 4.06H237.507C237.507 4.78533 237.464 5.40933 237.379 5.932C237.294 6.444 237.176 6.88133 237.027 7.244C236.888 7.596 236.744 7.89467 236.595 8.14H234.819ZM241.9 15.724C241.335 15.724 240.823 15.6707 240.364 15.564C239.906 15.4573 239.511 15.3027 239.18 15.1C238.85 14.8973 238.583 14.6573 238.38 14.38C238.178 14.092 238.044 13.772 237.98 13.42L239.74 12.7C239.783 12.9347 239.9 13.1533 240.092 13.356C240.284 13.5587 240.54 13.724 240.86 13.852C241.191 13.9693 241.586 14.028 242.044 14.028C242.535 14.028 242.914 13.9587 243.18 13.82C243.447 13.6707 243.58 13.4627 243.58 13.196C243.58 12.9933 243.506 12.8333 243.356 12.716C243.207 12.5987 242.988 12.4973 242.7 12.412C242.412 12.3267 242.066 12.2467 241.66 12.172C241.266 12.076 240.86 11.9747 240.444 11.868C240.039 11.7613 239.66 11.612 239.308 11.42C238.967 11.228 238.684 10.9773 238.46 10.668C238.247 10.348 238.14 9.94267 238.14 9.452C238.14 8.94 238.279 8.492 238.556 8.108C238.834 7.724 239.239 7.42533 239.772 7.212C240.306 6.988 240.956 6.876 241.724 6.876C242.418 6.876 243.026 6.972 243.548 7.164C244.071 7.34533 244.498 7.612 244.828 7.964C245.17 8.30533 245.399 8.716 245.516 9.196L243.644 9.82C243.602 9.564 243.495 9.34 243.324 9.148C243.164 8.956 242.946 8.812 242.668 8.716C242.402 8.62 242.087 8.572 241.724 8.572C241.266 8.572 240.908 8.64667 240.652 8.796C240.407 8.94533 240.284 9.14267 240.284 9.388C240.284 9.59067 240.364 9.756 240.524 9.884C240.695 10.012 240.93 10.1187 241.228 10.204C241.527 10.2787 241.879 10.3587 242.284 10.444C242.711 10.5293 243.127 10.6307 243.532 10.748C243.938 10.8547 244.3 10.9987 244.62 11.18C244.951 11.3613 245.212 11.6013 245.404 11.9C245.596 12.1987 245.692 12.5827 245.692 13.052C245.692 13.6067 245.543 14.0867 245.244 14.492C244.946 14.8867 244.514 15.1907 243.948 15.404C243.383 15.6173 242.7 15.724 241.9 15.724ZM251.043 15.5V4.94H254.051L258.835 12.412H259.011L258.867 4.94H261.107V15.5H258.387L253.331 7.676H253.155L253.299 15.5H251.043ZM267.241 15.724C266.548 15.724 265.929 15.628 265.385 15.436C264.852 15.244 264.399 14.9667 264.025 14.604C263.652 14.2413 263.364 13.7933 263.161 13.26C262.969 12.7267 262.873 12.124 262.873 11.452C262.873 10.7907 262.964 10.1827 263.145 9.628C263.337 9.06267 263.615 8.57733 263.977 8.172C264.34 7.756 264.783 7.436 265.305 7.212C265.828 6.988 266.42 6.876 267.081 6.876C267.721 6.876 268.292 6.98267 268.793 7.196C269.295 7.39867 269.711 7.708 270.041 8.124C270.383 8.54 270.628 9.052 270.777 9.66C270.937 10.2573 270.996 10.9453 270.953 11.724L264.361 11.788V10.524L269.625 10.476L268.809 11.116C268.884 10.5507 268.847 10.0867 268.697 9.724C268.548 9.36133 268.329 9.09467 268.041 8.924C267.764 8.75333 267.455 8.668 267.113 8.668C266.708 8.668 266.351 8.77467 266.041 8.988C265.732 9.20133 265.492 9.516 265.321 9.932C265.151 10.3373 265.065 10.828 265.065 11.404C265.065 12.3107 265.263 12.9773 265.657 13.404C266.063 13.8307 266.591 14.044 267.241 14.044C267.54 14.044 267.791 14.0067 267.993 13.932C268.207 13.8467 268.377 13.74 268.505 13.612C268.644 13.484 268.751 13.34 268.825 13.18C268.911 13.02 268.98 12.86 269.033 12.7L271.033 13.132C270.937 13.5267 270.793 13.884 270.601 14.204C270.42 14.5133 270.175 14.7853 269.865 15.02C269.556 15.244 269.183 15.4147 268.745 15.532C268.319 15.66 267.817 15.724 267.241 15.724ZM273.898 15.5L271.818 7.1H274.218L275.402 13.676H275.706L277.114 7.1H279.882L281.338 13.676H281.642L282.794 7.1H285.146L283.05 15.5H279.882L278.57 8.972H278.298L277.05 15.5H273.898ZM290.246 15.5V4.94H293.718L296.662 12.892H296.742L299.622 4.94H302.934V15.5H300.742L300.886 7.276H300.71L297.51 15.5H295.59L292.438 7.276H292.262L292.406 15.5H290.246ZM309.069 15.724C308.376 15.724 307.757 15.628 307.213 15.436C306.68 15.244 306.227 14.9667 305.853 14.604C305.48 14.2413 305.192 13.7933 304.989 13.26C304.797 12.7267 304.701 12.124 304.701 11.452C304.701 10.7907 304.792 10.1827 304.973 9.628C305.165 9.06267 305.443 8.57733 305.805 8.172C306.168 7.756 306.611 7.436 307.133 7.212C307.656 6.988 308.248 6.876 308.909 6.876C309.549 6.876 310.12 6.98267 310.621 7.196C311.123 7.39867 311.539 7.708 311.869 8.124C312.211 8.54 312.456 9.052 312.605 9.66C312.765 10.2573 312.824 10.9453 312.781 11.724L306.189 11.788V10.524L311.453 10.476L310.637 11.116C310.712 10.5507 310.675 10.0867 310.525 9.724C310.376 9.36133 310.157 9.09467 309.869 8.924C309.592 8.75333 309.283 8.668 308.941 8.668C308.536 8.668 308.179 8.77467 307.869 8.988C307.56 9.20133 307.32 9.516 307.149 9.932C306.979 10.3373 306.893 10.828 306.893 11.404C306.893 12.3107 307.091 12.9773 307.485 13.404C307.891 13.8307 308.419 14.044 309.069 14.044C309.368 14.044 309.619 14.0067 309.821 13.932C310.035 13.8467 310.205 13.74 310.333 13.612C310.472 13.484 310.579 13.34 310.653 13.18C310.739 13.02 310.808 12.86 310.861 12.7L312.861 13.132C312.765 13.5267 312.621 13.884 312.429 14.204C312.248 14.5133 312.003 14.7853 311.693 15.02C311.384 15.244 311.011 15.4147 310.573 15.532C310.147 15.66 309.645 15.724 309.069 15.724ZM318.758 12.108C318.704 11.6173 318.731 11.212 318.838 10.892C318.944 10.572 319.094 10.3053 319.286 10.092C319.478 9.87867 319.686 9.69733 319.91 9.548C320.144 9.388 320.363 9.23333 320.566 9.084C320.779 8.93467 320.95 8.764 321.078 8.572C321.216 8.36933 321.286 8.11867 321.286 7.82C321.286 7.41467 321.158 7.116 320.902 6.924C320.656 6.732 320.331 6.636 319.926 6.636C319.68 6.636 319.419 6.668 319.142 6.732C318.875 6.796 318.608 6.88667 318.342 7.004C318.075 7.12133 317.814 7.26 317.558 7.42L317.43 5.452C317.718 5.28133 318.016 5.14267 318.326 5.036C318.635 4.92933 318.95 4.84933 319.27 4.796C319.59 4.732 319.899 4.7 320.198 4.7C320.646 4.7 321.072 4.75867 321.478 4.876C321.883 4.99333 322.235 5.17467 322.534 5.42C322.843 5.65467 323.088 5.948 323.27 6.3C323.451 6.652 323.542 7.07333 323.542 7.564C323.542 8.012 323.467 8.38533 323.318 8.684C323.168 8.98267 322.976 9.23867 322.742 9.452C322.518 9.66533 322.278 9.85733 322.022 10.028C321.766 10.1987 321.526 10.3747 321.302 10.556C321.078 10.7373 320.896 10.9507 320.758 11.196C320.63 11.4413 320.576 11.7453 320.598 12.108H318.758ZM319.782 15.708C319.28 15.708 318.902 15.6013 318.646 15.388C318.4 15.1747 318.278 14.844 318.278 14.396C318.278 13.9373 318.4 13.6013 318.646 13.388C318.902 13.1747 319.28 13.068 319.782 13.068C320.294 13.068 320.672 13.1747 320.918 13.388C321.174 13.6013 321.302 13.9373 321.302 14.396C321.302 15.2707 320.795 15.708 319.782 15.708Z" fill="#55ADBD"/>
<path d="M365.361 5.02773C365.162 4.12464 364.794 3.28492 364.258 2.52443C363.717 1.76393 363.033 1.14603 362.216 0.691841C361.389 0.232374 360.47 0 359.475 0C358.393 0 357.458 0.316873 356.693 0.945339C356.172 1.36784 355.656 1.90124 355.161 2.53499C354.671 1.92237 354.145 1.39424 353.594 0.961183C351.996 -0.290467 349.755 -0.237655 348.1 0.675997C347.299 1.11434 346.61 1.72696 346.069 2.49802C345.533 3.25323 345.155 4.09823 344.935 5.04885C344.69 6.39028 344.711 7.67362 344.997 8.89886C345.425 10.3512 346.201 11.7402 347.314 13.0341C348.177 14.0269 349.137 15.004 350.168 15.9493C351.194 16.8841 352.608 18.0882 354.37 19.53L354.763 19.8521C354.88 19.9525 355.018 20 355.161 20C355.309 20 355.457 19.9472 355.574 19.8416C356.029 19.4402 356.493 19.023 356.963 18.5952C357.423 18.178 357.902 17.7608 358.408 17.3383C359.592 16.3137 360.537 15.474 361.231 14.8244C361.951 14.159 362.543 13.5516 362.982 13.0288C364.121 11.6926 364.902 10.2984 365.305 8.86718C365.586 7.73171 365.606 6.45366 365.361 5.02245V5.02773ZM361.808 9.28134C361.548 10.2161 361.027 11.1117 360.281 11.9884C359.996 12.3317 359.608 12.7278 359.138 13.1661C358.678 13.5886 358.066 14.1378 357.29 14.8086C356.958 15.0832 356.647 15.3578 356.345 15.6324C356.039 15.9123 355.733 16.187 355.437 16.4457C355.36 16.5144 355.263 16.5514 355.166 16.5514C355.069 16.5514 354.982 16.5197 354.906 16.4563L354.65 16.2451C353.497 15.2997 352.573 14.5128 351.904 13.9002C351.225 13.2823 350.597 12.6433 350.035 11.9937C349.305 11.1487 348.8 10.235 348.519 9.28439C348.33 8.48165 348.315 7.64193 348.478 6.76525C348.621 6.14207 348.871 5.58754 349.219 5.09638C349.576 4.59467 350.025 4.19329 350.551 3.90283C351.633 3.30605 353.098 3.26908 354.145 4.08767C354.507 4.37285 354.85 4.71613 355.171 5.11751C355.498 4.70557 355.835 4.35173 356.177 4.07711C356.677 3.66517 357.29 3.4592 357.994 3.4592C358.643 3.4592 359.245 3.61236 359.786 3.91339C360.322 4.21442 360.772 4.61579 361.124 5.11223C361.476 5.60866 361.716 6.15791 361.844 6.74941C362.002 7.68418 361.992 8.5239 361.808 9.26327V9.28134Z" fill="#55ADBD"/>
<path d="M358.782 7.01886C358.568 6.71783 358.292 6.46961 357.971 6.29005C357.639 6.10521 357.271 6.01542 356.878 6.01542C356.449 6.01542 356.077 6.14217 355.77 6.39039C355.561 6.55939 355.357 6.77064 355.158 7.02414C354.964 6.7812 354.754 6.56995 354.535 6.39567C353.897 5.89396 353.003 5.92036 352.345 6.28477C352.023 6.45905 351.752 6.70198 351.533 7.01358C351.319 7.31461 351.17 7.6526 351.084 8.02757C350.987 8.56098 350.992 9.07325 351.109 9.56441C351.278 10.1453 351.589 10.6999 352.033 11.2122C352.375 11.6082 352.758 11.9991 353.172 12.374C353.58 12.749 354.147 13.2296 354.846 13.8L355.004 13.9267C355.05 13.9637 355.107 13.9848 355.163 13.9848C355.224 13.9848 355.28 13.9637 355.326 13.9214C355.505 13.763 355.694 13.594 355.877 13.425C356.061 13.256 356.25 13.0923 356.454 12.9233C356.929 12.5113 357.302 12.1786 357.583 11.9198C357.868 11.6558 358.103 11.4128 358.282 11.2016C358.736 10.6682 359.048 10.1137 359.206 9.54328C359.318 9.0891 359.329 8.5821 359.226 8.01173C359.15 7.6526 359.002 7.31461 358.787 7.01358L358.782 7.01886ZM356.71 10.2827C355.98 10.7052 355.627 11.096 355.26 11.9251C355.214 12.0255 355.091 12.0255 355.045 11.9251C354.816 11.4128 354.596 11.0643 354.285 10.7791C354.244 10.7474 354.203 10.7157 354.167 10.6735C354.004 10.5362 353.815 10.4094 353.595 10.2827C353.509 10.2351 353.509 10.0925 353.595 10.045C354.325 9.6225 354.678 9.23169 355.045 8.40254C355.091 8.3022 355.214 8.3022 355.26 8.40254C355.632 9.23169 355.98 9.6225 356.71 10.045C356.796 10.0925 356.796 10.2351 356.71 10.2827Z" fill="#55ADBD"/>
<path d="M388.283 15.5L385.899 4.94H388.411L389.979 13.532H390.155L392.011 4.94H394.939L396.795 13.532H396.987L398.555 4.94H400.939L398.523 15.5H395.307L393.515 6.908H393.371L391.579 15.5H388.283ZM402.368 15.5V10.22V4.06H404.689V6.684C404.689 6.89733 404.678 7.12133 404.657 7.356C404.646 7.59067 404.619 7.83067 404.577 8.076C404.545 8.31067 404.507 8.55067 404.465 8.796C404.433 9.04133 404.395 9.28667 404.353 9.532H404.705C404.854 8.988 405.041 8.51867 405.265 8.124C405.499 7.72933 405.798 7.42533 406.161 7.212C406.523 6.988 406.982 6.876 407.537 6.876C408.518 6.876 409.254 7.22267 409.745 7.916C410.235 8.59867 410.481 9.64933 410.481 11.068V15.5H408.161V11.42C408.161 10.524 408.027 9.86267 407.761 9.436C407.505 8.99867 407.115 8.78 406.593 8.78C406.166 8.78 405.814 8.908 405.536 9.164C405.259 9.42 405.051 9.76667 404.913 10.204C404.774 10.6307 404.694 11.1107 404.673 11.644V15.5H402.368ZM414.43 15.724C413.961 15.724 413.545 15.6333 413.182 15.452C412.82 15.26 412.537 14.988 412.334 14.636C412.132 14.284 412.03 13.8467 412.03 13.324C412.03 12.8653 412.116 12.4813 412.286 12.172C412.468 11.8627 412.729 11.612 413.07 11.42C413.412 11.228 413.833 11.068 414.334 10.94C414.836 10.812 415.406 10.7 416.046 10.604C416.388 10.5507 416.665 10.5027 416.878 10.46C417.102 10.4067 417.268 10.3267 417.374 10.22C417.481 10.1027 417.534 9.93733 417.534 9.724C417.534 9.42533 417.428 9.16933 417.214 8.956C417.001 8.74267 416.665 8.636 416.206 8.636C415.897 8.636 415.609 8.68933 415.342 8.796C415.086 8.90267 414.862 9.06267 414.67 9.276C414.489 9.48933 414.356 9.76133 414.27 10.092L412.238 9.468C412.366 9.03067 412.548 8.652 412.782 8.332C413.028 8.012 413.321 7.74533 413.662 7.532C414.004 7.308 414.393 7.14267 414.83 7.036C415.268 6.92933 415.742 6.876 416.254 6.876C417.076 6.876 417.742 7.00933 418.254 7.276C418.777 7.532 419.166 7.93733 419.422 8.492C419.678 9.036 419.806 9.74 419.806 10.604V12.044C419.806 12.4173 419.812 12.796 419.822 13.18C419.844 13.564 419.865 13.9533 419.886 14.348C419.918 14.732 419.95 15.116 419.982 15.5H417.95C417.908 15.2333 417.865 14.9293 417.822 14.588C417.79 14.236 417.764 13.884 417.742 13.532H417.454C417.305 13.9373 417.092 14.3053 416.814 14.636C416.537 14.9667 416.196 15.2333 415.79 15.436C415.396 15.628 414.942 15.724 414.43 15.724ZM415.406 14.06C415.609 14.06 415.812 14.0227 416.014 13.948C416.228 13.8733 416.43 13.772 416.622 13.644C416.825 13.5053 417.006 13.3347 417.166 13.132C417.337 12.9293 417.476 12.7 417.582 12.444L417.55 11.1L417.918 11.18C417.726 11.3187 417.502 11.4307 417.246 11.516C416.99 11.5907 416.724 11.6493 416.446 11.692C416.18 11.7347 415.913 11.7827 415.646 11.836C415.38 11.8893 415.14 11.9587 414.926 12.044C414.724 12.1293 414.558 12.2467 414.43 12.396C414.313 12.5347 414.254 12.732 414.254 12.988C414.254 13.3187 414.361 13.58 414.574 13.772C414.788 13.964 415.065 14.06 415.406 14.06ZM424.942 15.692C424.003 15.692 423.31 15.4467 422.862 14.956C422.424 14.4547 422.206 13.66 422.206 12.572V8.908H420.99L421.022 7.1H421.87C422.2 7.1 422.446 7.052 422.606 6.956C422.766 6.86 422.862 6.684 422.894 6.428L423.102 5.228H424.414V7.1H426.542V8.972H424.414V12.476C424.414 12.86 424.504 13.1373 424.686 13.308C424.867 13.4787 425.144 13.564 425.518 13.564C425.72 13.564 425.912 13.5427 426.094 13.5C426.286 13.4573 426.451 13.388 426.59 13.292V15.436C426.259 15.5427 425.955 15.612 425.678 15.644C425.4 15.676 425.155 15.692 424.942 15.692ZM427.585 8.14C427.777 7.64933 427.91 7.19067 427.985 6.764C428.07 6.33733 428.118 5.91067 428.129 5.484C428.15 5.04667 428.161 4.572 428.161 4.06H430.273C430.273 4.78533 430.23 5.40933 430.145 5.932C430.059 6.444 429.942 6.88133 429.793 7.244C429.654 7.596 429.51 7.89467 429.361 8.14H427.585ZM434.666 15.724C434.101 15.724 433.589 15.6707 433.13 15.564C432.671 15.4573 432.277 15.3027 431.946 15.1C431.615 14.8973 431.349 14.6573 431.146 14.38C430.943 14.092 430.81 13.772 430.746 13.42L432.506 12.7C432.549 12.9347 432.666 13.1533 432.858 13.356C433.05 13.5587 433.306 13.724 433.626 13.852C433.957 13.9693 434.351 14.028 434.81 14.028C435.301 14.028 435.679 13.9587 435.946 13.82C436.213 13.6707 436.346 13.4627 436.346 13.196C436.346 12.9933 436.271 12.8333 436.122 12.716C435.973 12.5987 435.754 12.4973 435.466 12.412C435.178 12.3267 434.831 12.2467 434.426 12.172C434.031 12.076 433.626 11.9747 433.21 11.868C432.805 11.7613 432.426 11.612 432.074 11.42C431.733 11.228 431.45 10.9773 431.226 10.668C431.013 10.348 430.906 9.94267 430.906 9.452C430.906 8.94 431.045 8.492 431.322 8.108C431.599 7.724 432.005 7.42533 432.538 7.212C433.071 6.988 433.722 6.876 434.49 6.876C435.183 6.876 435.791 6.972 436.314 7.164C436.837 7.34533 437.263 7.612 437.594 7.964C437.935 8.30533 438.165 8.716 438.282 9.196L436.41 9.82C436.367 9.564 436.261 9.34 436.09 9.148C435.93 8.956 435.711 8.812 435.434 8.716C435.167 8.62 434.853 8.572 434.49 8.572C434.031 8.572 433.674 8.64667 433.418 8.796C433.173 8.94533 433.05 9.14267 433.05 9.388C433.05 9.59067 433.13 9.756 433.29 9.884C433.461 10.012 433.695 10.1187 433.994 10.204C434.293 10.2787 434.645 10.3587 435.05 10.444C435.477 10.5293 435.893 10.6307 436.298 10.748C436.703 10.8547 437.066 10.9987 437.386 11.18C437.717 11.3613 437.978 11.6013 438.17 11.9C438.362 12.1987 438.458 12.5827 438.458 13.052C438.458 13.6067 438.309 14.0867 438.01 14.492C437.711 14.8867 437.279 15.1907 436.714 15.404C436.149 15.6173 435.466 15.724 434.666 15.724ZM443.809 15.5V4.94H446.817L451.601 12.412H451.777L451.633 4.94H453.873V15.5H451.153L446.097 7.676H445.921L446.065 15.5H443.809ZM460.007 15.724C459.314 15.724 458.695 15.628 458.151 15.436C457.618 15.244 457.164 14.9667 456.791 14.604C456.418 14.2413 456.13 13.7933 455.927 13.26C455.735 12.7267 455.639 12.124 455.639 11.452C455.639 10.7907 455.73 10.1827 455.911 9.628C456.103 9.06267 456.38 8.57733 456.743 8.172C457.106 7.756 457.548 7.436 458.071 7.212C458.594 6.988 459.186 6.876 459.847 6.876C460.487 6.876 461.058 6.98267 461.559 7.196C462.06 7.39867 462.476 7.708 462.807 8.124C463.148 8.54 463.394 9.052 463.543 9.66C463.703 10.2573 463.762 10.9453 463.719 11.724L457.127 11.788V10.524L462.391 10.476L461.575 11.116C461.65 10.5507 461.612 10.0867 461.463 9.724C461.314 9.36133 461.095 9.09467 460.807 8.924C460.53 8.75333 460.22 8.668 459.879 8.668C459.474 8.668 459.116 8.77467 458.807 8.988C458.498 9.20133 458.258 9.516 458.087 9.932C457.916 10.3373 457.831 10.828 457.831 11.404C457.831 12.3107 458.028 12.9773 458.423 13.404C458.828 13.8307 459.356 14.044 460.007 14.044C460.306 14.044 460.556 14.0067 460.759 13.932C460.972 13.8467 461.143 13.74 461.271 13.612C461.41 13.484 461.516 13.34 461.591 13.18C461.676 13.02 461.746 12.86 461.799 12.7L463.799 13.132C463.703 13.5267 463.559 13.884 463.367 14.204C463.186 14.5133 462.94 14.7853 462.631 15.02C462.322 15.244 461.948 15.4147 461.511 15.532C461.084 15.66 460.583 15.724 460.007 15.724ZM466.664 15.5L464.584 7.1H466.984L468.168 13.676H468.472L469.88 7.1H472.648L474.104 13.676H474.408L475.56 7.1H477.912L475.816 15.5H472.648L471.336 8.972H471.064L469.816 15.5H466.664ZM483.012 15.5V4.94H486.484L489.428 12.892H489.508L492.388 4.94H495.7V15.5H493.508L493.652 7.276H493.476L490.276 15.5H488.356L485.204 7.276H485.028L485.172 15.5H483.012ZM501.835 15.724C501.142 15.724 500.523 15.628 499.979 15.436C499.446 15.244 498.992 14.9667 498.619 14.604C498.246 14.2413 497.958 13.7933 497.755 13.26C497.563 12.7267 497.467 12.124 497.467 11.452C497.467 10.7907 497.558 10.1827 497.739 9.628C497.931 9.06267 498.208 8.57733 498.571 8.172C498.934 7.756 499.376 7.436 499.899 7.212C500.422 6.988 501.014 6.876 501.675 6.876C502.315 6.876 502.886 6.98267 503.387 7.196C503.888 7.39867 504.304 7.708 504.635 8.124C504.976 8.54 505.222 9.052 505.371 9.66C505.531 10.2573 505.59 10.9453 505.547 11.724L498.955 11.788V10.524L504.219 10.476L503.403 11.116C503.478 10.5507 503.44 10.0867 503.291 9.724C503.142 9.36133 502.923 9.09467 502.635 8.924C502.358 8.75333 502.048 8.668 501.707 8.668C501.302 8.668 500.944 8.77467 500.635 8.988C500.326 9.20133 500.086 9.516 499.915 9.932C499.744 10.3373 499.659 10.828 499.659 11.404C499.659 12.3107 499.856 12.9773 500.251 13.404C500.656 13.8307 501.184 14.044 501.835 14.044C502.134 14.044 502.384 14.0067 502.587 13.932C502.8 13.8467 502.971 13.74 503.099 13.612C503.238 13.484 503.344 13.34 503.419 13.18C503.504 13.02 503.574 12.86 503.627 12.7L505.627 13.132C505.531 13.5267 505.387 13.884 505.195 14.204C505.014 14.5133 504.768 14.7853 504.459 15.02C504.15 15.244 503.776 15.4147 503.339 15.532C502.912 15.66 502.411 15.724 501.835 15.724ZM511.523 12.108C511.47 11.6173 511.497 11.212 511.603 10.892C511.71 10.572 511.859 10.3053 512.051 10.092C512.243 9.87867 512.451 9.69733 512.675 9.548C512.91 9.388 513.129 9.23333 513.331 9.084C513.545 8.93467 513.715 8.764 513.843 8.572C513.982 8.36933 514.051 8.11867 514.051 7.82C514.051 7.41467 513.923 7.116 513.667 6.924C513.422 6.732 513.097 6.636 512.691 6.636C512.446 6.636 512.185 6.668 511.907 6.732C511.641 6.796 511.374 6.88667 511.107 7.004C510.841 7.12133 510.579 7.26 510.323 7.42L510.195 5.452C510.483 5.28133 510.782 5.14267 511.091 5.036C511.401 4.92933 511.715 4.84933 512.035 4.796C512.355 4.732 512.665 4.7 512.963 4.7C513.411 4.7 513.838 4.75867 514.243 4.876C514.649 4.99333 515.001 5.17467 515.299 5.42C515.609 5.65467 515.854 5.948 516.035 6.3C516.217 6.652 516.307 7.07333 516.307 7.564C516.307 8.012 516.233 8.38533 516.083 8.684C515.934 8.98267 515.742 9.23867 515.507 9.452C515.283 9.66533 515.043 9.85733 514.787 10.028C514.531 10.1987 514.291 10.3747 514.067 10.556C513.843 10.7373 513.662 10.9507 513.523 11.196C513.395 11.4413 513.342 11.7453 513.363 12.108H511.523ZM512.547 15.708C512.046 15.708 511.667 15.6013 511.411 15.388C511.166 15.1747 511.043 14.844 511.043 14.396C511.043 13.9373 511.166 13.6013 511.411 13.388C511.667 13.1747 512.046 13.068 512.547 13.068C513.059 13.068 513.438 13.1747 513.683 13.388C513.939 13.6013 514.067 13.9373 514.067 14.396C514.067 15.2707 513.561 15.708 512.547 15.708Z" fill="#55ADBD"/>
<path d="M558.127 5.02773C557.928 4.12464 557.56 3.28492 557.024 2.52443C556.483 1.76393 555.799 1.14603 554.982 0.691841C554.155 0.232374 553.236 0 552.24 0C551.158 0 550.224 0.316873 549.458 0.945339C548.937 1.36784 548.422 1.90124 547.927 2.53499C547.436 1.92237 546.911 1.39424 546.359 0.961183C544.761 -0.290467 542.52 -0.237655 540.866 0.675997C540.065 1.11434 539.375 1.72696 538.834 2.49802C538.298 3.25323 537.92 4.09823 537.701 5.04885C537.456 6.39028 537.476 7.67362 537.762 8.89886C538.191 10.3512 538.967 11.7402 540.08 13.0341C540.943 14.0269 541.902 15.004 542.934 15.9493C543.96 16.8841 545.374 18.0882 547.135 19.53L547.528 19.8521C547.646 19.9525 547.784 20 547.927 20C548.075 20 548.223 19.9472 548.34 19.8416C548.794 19.4402 549.259 19.023 549.729 18.5952C550.188 18.178 550.668 17.7608 551.173 17.3383C552.358 16.3137 553.302 15.474 553.997 14.8244C554.716 14.159 555.309 13.5516 555.748 13.0288C556.886 11.6926 557.667 10.2984 558.071 8.86718C558.351 7.73171 558.372 6.45366 558.127 5.02245V5.02773ZM554.574 9.28134C554.313 10.2161 553.792 11.1117 553.047 11.9884C552.761 12.3317 552.373 12.7278 551.904 13.1661C551.444 13.5886 550.831 14.1378 550.055 14.8086C549.724 15.0832 549.412 15.3578 549.111 15.6324C548.805 15.9123 548.498 16.187 548.202 16.4457C548.126 16.5144 548.029 16.5514 547.932 16.5514C547.835 16.5514 547.748 16.5197 547.671 16.4563L547.416 16.2451C546.262 15.2997 545.338 14.5128 544.669 13.9002C543.99 13.2823 543.363 12.6433 542.801 11.9937C542.071 11.1487 541.566 10.235 541.285 9.28439C541.096 8.48165 541.081 7.64193 541.244 6.76525C541.387 6.14207 541.637 5.58754 541.984 5.09638C542.342 4.59467 542.791 4.19329 543.317 3.90283C544.399 3.30605 545.864 3.26908 546.911 4.08767C547.273 4.37285 547.615 4.71613 547.937 5.11751C548.264 4.70557 548.6 4.35173 548.943 4.07711C549.443 3.66517 550.055 3.4592 550.76 3.4592C551.408 3.4592 552.011 3.61236 552.552 3.91339C553.088 4.21442 553.537 4.61579 553.889 5.11223C554.242 5.60866 554.482 6.15791 554.609 6.74941C554.768 7.68418 554.757 8.5239 554.574 9.26327V9.28134Z" fill="#55ADBD"/>
<path d="M551.548 7.01886C551.334 6.71783 551.058 6.46961 550.736 6.29005C550.404 6.10521 550.037 6.01542 549.644 6.01542C549.215 6.01542 548.842 6.14217 548.536 6.39039C548.327 6.55939 548.122 6.77064 547.923 7.02414C547.729 6.7812 547.52 6.56995 547.3 6.39567C546.662 5.89396 545.769 5.92036 545.11 6.28477C544.789 6.45905 544.518 6.70198 544.299 7.01358C544.084 7.31461 543.936 7.6526 543.849 8.02757C543.752 8.56098 543.757 9.07325 543.875 9.56441C544.043 10.1453 544.355 10.6999 544.799 11.2122C545.141 11.6082 545.524 11.9991 545.937 12.374C546.346 12.749 546.912 13.2296 547.612 13.8L547.77 13.9267C547.816 13.9637 547.872 13.9848 547.928 13.9848C547.99 13.9848 548.046 13.9637 548.092 13.9214C548.27 13.763 548.459 13.594 548.643 13.425C548.827 13.256 549.016 13.0923 549.22 12.9233C549.695 12.5113 550.067 12.1786 550.348 11.9198C550.634 11.6558 550.869 11.4128 551.048 11.2016C551.502 10.6682 551.813 10.1137 551.972 9.54328C552.084 9.0891 552.094 8.5821 551.992 8.01173C551.915 7.6526 551.767 7.31461 551.553 7.01358L551.548 7.01886ZM549.475 10.2827C548.745 10.7052 548.393 11.096 548.025 11.9251C547.979 12.0255 547.857 12.0255 547.811 11.9251C547.581 11.4128 547.362 11.0643 547.05 10.7791C547.009 10.7474 546.969 10.7157 546.933 10.6735C546.769 10.5362 546.581 10.4094 546.361 10.2827C546.274 10.2351 546.274 10.0925 546.361 10.045C547.091 9.6225 547.443 9.23169 547.811 8.40254C547.857 8.3022 547.979 8.3022 548.025 8.40254C548.398 9.23169 548.745 9.6225 549.475 10.045C549.562 10.0925 549.562 10.2351 549.475 10.2827Z" fill="#55ADBD"/>
<path d="M581.049 15.5L578.665 4.94H581.177L582.745 13.532H582.921L584.777 4.94H587.705L589.561 13.532H589.753L591.321 4.94H593.705L591.289 15.5H588.073L586.281 6.908H586.137L584.345 15.5H581.049ZM595.134 15.5V10.22V4.06H597.454V6.684C597.454 6.89733 597.443 7.12133 597.422 7.356C597.411 7.59067 597.385 7.83067 597.342 8.076C597.31 8.31067 597.273 8.55067 597.23 8.796C597.198 9.04133 597.161 9.28667 597.118 9.532H597.47C597.619 8.988 597.806 8.51867 598.03 8.124C598.265 7.72933 598.563 7.42533 598.926 7.212C599.289 6.988 599.747 6.876 600.302 6.876C601.283 6.876 602.019 7.22267 602.51 7.916C603.001 8.59867 603.246 9.64933 603.246 11.068V15.5H600.926V11.42C600.926 10.524 600.793 9.86267 600.526 9.436C600.27 8.99867 599.881 8.78 599.358 8.78C598.931 8.78 598.579 8.908 598.302 9.164C598.025 9.42 597.817 9.76667 597.678 10.204C597.539 10.6307 597.459 11.1107 597.438 11.644V15.5H595.134ZM607.196 15.724C606.727 15.724 606.311 15.6333 605.948 15.452C605.585 15.26 605.303 14.988 605.1 14.636C604.897 14.284 604.796 13.8467 604.796 13.324C604.796 12.8653 604.881 12.4813 605.052 12.172C605.233 11.8627 605.495 11.612 605.836 11.42C606.177 11.228 606.599 11.068 607.1 10.94C607.601 10.812 608.172 10.7 608.812 10.604C609.153 10.5507 609.431 10.5027 609.644 10.46C609.868 10.4067 610.033 10.3267 610.14 10.22C610.247 10.1027 610.3 9.93733 610.3 9.724C610.3 9.42533 610.193 9.16933 609.98 8.956C609.767 8.74267 609.431 8.636 608.972 8.636C608.663 8.636 608.375 8.68933 608.108 8.796C607.852 8.90267 607.628 9.06267 607.436 9.276C607.255 9.48933 607.121 9.76133 607.036 10.092L605.004 9.468C605.132 9.03067 605.313 8.652 605.548 8.332C605.793 8.012 606.087 7.74533 606.428 7.532C606.769 7.308 607.159 7.14267 607.596 7.036C608.033 6.92933 608.508 6.876 609.02 6.876C609.841 6.876 610.508 7.00933 611.02 7.276C611.543 7.532 611.932 7.93733 612.188 8.492C612.444 9.036 612.572 9.74 612.572 10.604V12.044C612.572 12.4173 612.577 12.796 612.588 13.18C612.609 13.564 612.631 13.9533 612.652 14.348C612.684 14.732 612.716 15.116 612.748 15.5H610.716C610.673 15.2333 610.631 14.9293 610.588 14.588C610.556 14.236 610.529 13.884 610.508 13.532H610.22C610.071 13.9373 609.857 14.3053 609.58 14.636C609.303 14.9667 608.961 15.2333 608.556 15.436C608.161 15.628 607.708 15.724 607.196 15.724ZM608.172 14.06C608.375 14.06 608.577 14.0227 608.78 13.948C608.993 13.8733 609.196 13.772 609.388 13.644C609.591 13.5053 609.772 13.3347 609.932 13.132C610.103 12.9293 610.241 12.7 610.348 12.444L610.316 11.1L610.684 11.18C610.492 11.3187 610.268 11.4307 610.012 11.516C609.756 11.5907 609.489 11.6493 609.212 11.692C608.945 11.7347 608.679 11.7827 608.412 11.836C608.145 11.8893 607.905 11.9587 607.692 12.044C607.489 12.1293 607.324 12.2467 607.196 12.396C607.079 12.5347 607.02 12.732 607.02 12.988C607.02 13.3187 607.127 13.58 607.34 13.772C607.553 13.964 607.831 14.06 608.172 14.06ZM617.707 15.692C616.769 15.692 616.075 15.4467 615.627 14.956C615.19 14.4547 614.971 13.66 614.971 12.572V8.908H613.755L613.787 7.1H614.635C614.966 7.1 615.211 7.052 615.371 6.956C615.531 6.86 615.627 6.684 615.659 6.428L615.867 5.228H617.179V7.1H619.307V8.972H617.179V12.476C617.179 12.86 617.27 13.1373 617.451 13.308C617.633 13.4787 617.91 13.564 618.283 13.564C618.486 13.564 618.678 13.5427 618.859 13.5C619.051 13.4573 619.217 13.388 619.355 13.292V15.436C619.025 15.5427 618.721 15.612 618.443 15.644C618.166 15.676 617.921 15.692 617.707 15.692ZM620.35 8.14C620.542 7.64933 620.675 7.19067 620.75 6.764C620.835 6.33733 620.883 5.91067 620.894 5.484C620.915 5.04667 620.926 4.572 620.926 4.06H623.038C623.038 4.78533 622.995 5.40933 622.91 5.932C622.825 6.444 622.707 6.88133 622.558 7.244C622.419 7.596 622.275 7.89467 622.126 8.14H620.35ZM627.432 15.724C626.866 15.724 626.354 15.6707 625.896 15.564C625.437 15.4573 625.042 15.3027 624.712 15.1C624.381 14.8973 624.114 14.6573 623.912 14.38C623.709 14.092 623.576 13.772 623.512 13.42L625.272 12.7C625.314 12.9347 625.432 13.1533 625.624 13.356C625.816 13.5587 626.072 13.724 626.392 13.852C626.722 13.9693 627.117 14.028 627.576 14.028C628.066 14.028 628.445 13.9587 628.712 13.82C628.978 13.6707 629.112 13.4627 629.112 13.196C629.112 12.9933 629.037 12.8333 628.888 12.716C628.738 12.5987 628.52 12.4973 628.232 12.412C627.944 12.3267 627.597 12.2467 627.192 12.172C626.797 12.076 626.392 11.9747 625.976 11.868C625.57 11.7613 625.192 11.612 624.84 11.42C624.498 11.228 624.216 10.9773 623.992 10.668C623.778 10.348 623.672 9.94267 623.672 9.452C623.672 8.94 623.81 8.492 624.088 8.108C624.365 7.724 624.77 7.42533 625.304 7.212C625.837 6.988 626.488 6.876 627.256 6.876C627.949 6.876 628.557 6.972 629.08 7.164C629.602 7.34533 630.029 7.612 630.36 7.964C630.701 8.30533 630.93 8.716 631.048 9.196L629.176 9.82C629.133 9.564 629.026 9.34 628.856 9.148C628.696 8.956 628.477 8.812 628.2 8.716C627.933 8.62 627.618 8.572 627.256 8.572C626.797 8.572 626.44 8.64667 626.184 8.796C625.938 8.94533 625.816 9.14267 625.816 9.388C625.816 9.59067 625.896 9.756 626.056 9.884C626.226 10.012 626.461 10.1187 626.76 10.204C627.058 10.2787 627.41 10.3587 627.816 10.444C628.242 10.5293 628.658 10.6307 629.064 10.748C629.469 10.8547 629.832 10.9987 630.152 11.18C630.482 11.3613 630.744 11.6013 630.936 11.9C631.128 12.1987 631.224 12.5827 631.224 13.052C631.224 13.6067 631.074 14.0867 630.776 14.492C630.477 14.8867 630.045 15.1907 629.48 15.404C628.914 15.6173 628.232 15.724 627.432 15.724ZM636.574 15.5V4.94H639.582L644.366 12.412H644.542L644.398 4.94H646.638V15.5H643.918L638.862 7.676H638.686L638.83 15.5H636.574ZM652.773 15.724C652.079 15.724 651.461 15.628 650.917 15.436C650.383 15.244 649.93 14.9667 649.557 14.604C649.183 14.2413 648.895 13.7933 648.693 13.26C648.501 12.7267 648.405 12.124 648.405 11.452C648.405 10.7907 648.495 10.1827 648.677 9.628C648.869 9.06267 649.146 8.57733 649.509 8.172C649.871 7.756 650.314 7.436 650.837 7.212C651.359 6.988 651.951 6.876 652.613 6.876C653.253 6.876 653.823 6.98267 654.325 7.196C654.826 7.39867 655.242 7.708 655.573 8.124C655.914 8.54 656.159 9.052 656.309 9.66C656.469 10.2573 656.527 10.9453 656.485 11.724L649.893 11.788V10.524L655.157 10.476L654.341 11.116C654.415 10.5507 654.378 10.0867 654.229 9.724C654.079 9.36133 653.861 9.09467 653.573 8.924C653.295 8.75333 652.986 8.668 652.645 8.668C652.239 8.668 651.882 8.77467 651.573 8.988C651.263 9.20133 651.023 9.516 650.853 9.932C650.682 10.3373 650.597 10.828 650.597 11.404C650.597 12.3107 650.794 12.9773 651.189 13.404C651.594 13.8307 652.122 14.044 652.773 14.044C653.071 14.044 653.322 14.0067 653.525 13.932C653.738 13.8467 653.909 13.74 654.037 13.612C654.175 13.484 654.282 13.34 654.357 13.18C654.442 13.02 654.511 12.86 654.565 12.7L656.565 13.132C656.469 13.5267 656.325 13.884 656.133 14.204C655.951 14.5133 655.706 14.7853 655.397 15.02C655.087 15.244 654.714 15.4147 654.277 15.532C653.85 15.66 653.349 15.724 652.773 15.724ZM659.429 15.5L657.349 7.1H659.749L660.933 13.676H661.237L662.645 7.1H665.413L666.869 13.676H667.173L668.325 7.1H670.677L668.581 15.5H665.413L664.101 8.972H663.829L662.581 15.5H659.429ZM675.777 15.5V4.94H679.249L682.193 12.892H682.273L685.153 4.94H688.465V15.5H686.273L686.417 7.276H686.241L683.041 15.5H681.121L677.969 7.276H677.793L677.937 15.5H675.777ZM694.601 15.724C693.907 15.724 693.289 15.628 692.745 15.436C692.211 15.244 691.758 14.9667 691.385 14.604C691.011 14.2413 690.723 13.7933 690.521 13.26C690.329 12.7267 690.233 12.124 690.233 11.452C690.233 10.7907 690.323 10.1827 690.505 9.628C690.697 9.06267 690.974 8.57733 691.337 8.172C691.699 7.756 692.142 7.436 692.665 7.212C693.187 6.988 693.779 6.876 694.441 6.876C695.081 6.876 695.651 6.98267 696.153 7.196C696.654 7.39867 697.07 7.708 697.401 8.124C697.742 8.54 697.987 9.052 698.137 9.66C698.297 10.2573 698.355 10.9453 698.313 11.724L691.721 11.788V10.524L696.985 10.476L696.169 11.116C696.243 10.5507 696.206 10.0867 696.057 9.724C695.907 9.36133 695.689 9.09467 695.401 8.924C695.123 8.75333 694.814 8.668 694.473 8.668C694.067 8.668 693.71 8.77467 693.401 8.988C693.091 9.20133 692.851 9.516 692.681 9.932C692.51 10.3373 692.425 10.828 692.425 11.404C692.425 12.3107 692.622 12.9773 693.017 13.404C693.422 13.8307 693.95 14.044 694.601 14.044C694.899 14.044 695.15 14.0067 695.353 13.932C695.566 13.8467 695.737 13.74 695.865 13.612C696.003 13.484 696.11 13.34 696.185 13.18C696.27 13.02 696.339 12.86 696.393 12.7L698.393 13.132C698.297 13.5267 698.153 13.884 697.961 14.204C697.779 14.5133 697.534 14.7853 697.225 15.02C696.915 15.244 696.542 15.4147 696.105 15.532C695.678 15.66 695.177 15.724 694.601 15.724ZM704.289 12.108C704.236 11.6173 704.262 11.212 704.369 10.892C704.476 10.572 704.625 10.3053 704.817 10.092C705.009 9.87867 705.217 9.69733 705.441 9.548C705.676 9.388 705.894 9.23333 706.097 9.084C706.31 8.93467 706.481 8.764 706.609 8.572C706.748 8.36933 706.817 8.11867 706.817 7.82C706.817 7.41467 706.689 7.116 706.433 6.924C706.188 6.732 705.862 6.636 705.457 6.636C705.212 6.636 704.95 6.668 704.673 6.732C704.406 6.796 704.14 6.88667 703.873 7.004C703.606 7.12133 703.345 7.26 703.089 7.42L702.961 5.452C703.249 5.28133 703.548 5.14267 703.857 5.036C704.166 4.92933 704.481 4.84933 704.801 4.796C705.121 4.732 705.43 4.7 705.729 4.7C706.177 4.7 706.604 4.75867 707.009 4.876C707.414 4.99333 707.766 5.17467 708.065 5.42C708.374 5.65467 708.62 5.948 708.801 6.3C708.982 6.652 709.073 7.07333 709.073 7.564C709.073 8.012 708.998 8.38533 708.849 8.684C708.7 8.98267 708.508 9.23867 708.273 9.452C708.049 9.66533 707.809 9.85733 707.553 10.028C707.297 10.1987 707.057 10.3747 706.833 10.556C706.609 10.7373 706.428 10.9507 706.289 11.196C706.161 11.4413 706.108 11.7453 706.129 12.108H704.289ZM705.313 15.708C704.812 15.708 704.433 15.6013 704.177 15.388C703.932 15.1747 703.809 14.844 703.809 14.396C703.809 13.9373 703.932 13.6013 704.177 13.388C704.433 13.1747 704.812 13.068 705.313 13.068C705.825 13.068 706.204 13.1747 706.449 13.388C706.705 13.6013 706.833 13.9373 706.833 14.396C706.833 15.2707 706.326 15.708 705.313 15.708Z" fill="#55ADBD"/>
<path d="M750.892 5.02773C750.693 4.12464 750.326 3.28492 749.79 2.52443C749.248 1.76393 748.564 1.14603 747.748 0.691841C746.921 0.232374 746.002 0 745.006 0C743.924 0 742.99 0.316873 742.224 0.945339C741.703 1.36784 741.187 1.90124 740.692 2.53499C740.202 1.92237 739.676 1.39424 739.125 0.961183C737.527 -0.290467 735.286 -0.237655 733.632 0.675997C732.83 1.11434 732.141 1.72696 731.6 2.49802C731.064 3.25323 730.686 4.09823 730.467 5.04885C730.221 6.39028 730.242 7.67362 730.528 8.89886C730.957 10.3512 731.733 11.7402 732.846 13.0341C733.708 14.0269 734.668 15.004 735.699 15.9493C736.725 16.8841 738.14 18.0882 739.901 19.53L740.294 19.8521C740.411 19.9525 740.549 20 740.692 20C740.84 20 740.988 19.9472 741.106 19.8416C741.56 19.4402 742.025 19.023 742.494 18.5952C742.954 18.178 743.434 17.7608 743.939 17.3383C745.124 16.3137 746.068 15.474 746.762 14.8244C747.482 14.159 748.074 13.5516 748.513 13.0288C749.652 11.6926 750.433 10.2984 750.836 8.86718C751.117 7.73171 751.137 6.45366 750.892 5.02245V5.02773ZM747.339 9.28134C747.079 10.2161 746.558 11.1117 745.813 11.9884C745.527 12.3317 745.139 12.7278 744.669 13.1661C744.21 13.5886 743.597 14.1378 742.821 14.8086C742.489 15.0832 742.178 15.3578 741.877 15.6324C741.57 15.9123 741.264 16.187 740.968 16.4457C740.891 16.5144 740.794 16.5514 740.697 16.5514C740.6 16.5514 740.514 16.5197 740.437 16.4563L740.182 16.2451C739.028 15.2997 738.104 14.5128 737.435 13.9002C736.756 13.2823 736.128 12.6433 735.567 11.9937C734.837 11.1487 734.331 10.235 734.05 9.28439C733.861 8.48165 733.846 7.64193 734.01 6.76525C734.152 6.14207 734.403 5.58754 734.75 5.09638C735.107 4.59467 735.556 4.19329 736.082 3.90283C737.165 3.30605 738.63 3.26908 739.676 4.08767C740.039 4.37285 740.381 4.71613 740.702 5.11751C741.029 4.70557 741.366 4.35173 741.708 4.07711C742.208 3.66517 742.821 3.4592 743.526 3.4592C744.174 3.4592 744.776 3.61236 745.318 3.91339C745.854 4.21442 746.303 4.61579 746.655 5.11223C747.007 5.60866 747.247 6.15791 747.375 6.74941C747.533 7.68418 747.523 8.5239 747.339 9.26327V9.28134Z" fill="#55ADBD"/>
<path d="M744.314 7.01886C744.099 6.71783 743.823 6.46961 743.502 6.29005C743.17 6.10521 742.802 6.01542 742.409 6.01542C741.98 6.01542 741.608 6.14217 741.301 6.39039C741.092 6.55939 740.888 6.77064 740.689 7.02414C740.495 6.7812 740.286 6.56995 740.066 6.39567C739.428 5.89396 738.534 5.92036 737.876 6.28477C737.554 6.45905 737.284 6.70198 737.064 7.01358C736.85 7.31461 736.702 7.6526 736.615 8.02757C736.518 8.56098 736.523 9.07325 736.64 9.56441C736.809 10.1453 737.12 10.6999 737.564 11.2122C737.907 11.6082 738.289 11.9991 738.703 12.374C739.111 12.749 739.678 13.2296 740.377 13.8L740.536 13.9267C740.582 13.9637 740.638 13.9848 740.694 13.9848C740.755 13.9848 740.811 13.9637 740.857 13.9214C741.036 13.763 741.225 13.594 741.409 13.425C741.592 13.256 741.781 13.0923 741.986 12.9233C742.46 12.5113 742.833 12.1786 743.114 11.9198C743.4 11.6558 743.635 11.4128 743.813 11.2016C744.268 10.6682 744.579 10.1137 744.737 9.54328C744.85 9.0891 744.86 8.5821 744.758 8.01173C744.681 7.6526 744.533 7.31461 744.319 7.01358L744.314 7.01886ZM742.241 10.2827C741.511 10.7052 741.159 11.096 740.791 11.9251C740.745 12.0255 740.622 12.0255 740.577 11.9251C740.347 11.4128 740.127 11.0643 739.816 10.7791C739.775 10.7474 739.734 10.7157 739.698 10.6735C739.535 10.5362 739.346 10.4094 739.127 10.2827C739.04 10.2351 739.04 10.0925 739.127 10.045C739.857 9.6225 740.209 9.23169 740.577 8.40254C740.622 8.3022 740.745 8.3022 740.791 8.40254C741.164 9.23169 741.511 9.6225 742.241 10.045C742.328 10.0925 742.328 10.2351 742.241 10.2827Z" fill="#55ADBD"/>
<path d="M773.815 15.5L771.431 4.94H773.943L775.511 13.532H775.687L777.543 4.94H780.47L782.327 13.532H782.519L784.087 4.94H786.471L784.055 15.5H780.839L779.047 6.908H778.903L777.111 15.5H773.815ZM787.9 15.5V10.22V4.06H790.22V6.684C790.22 6.89733 790.209 7.12133 790.188 7.356C790.177 7.59067 790.15 7.83067 790.108 8.076C790.076 8.31067 790.038 8.55067 789.996 8.796C789.964 9.04133 789.926 9.28667 789.884 9.532H790.236C790.385 8.988 790.572 8.51867 790.796 8.124C791.03 7.72933 791.329 7.42533 791.692 7.212C792.054 6.988 792.513 6.876 793.068 6.876C794.049 6.876 794.785 7.22267 795.276 7.916C795.766 8.59867 796.012 9.64933 796.012 11.068V15.5H793.692V11.42C793.692 10.524 793.558 9.86267 793.292 9.436C793.036 8.99867 792.646 8.78 792.124 8.78C791.697 8.78 791.345 8.908 791.068 9.164C790.79 9.42 790.582 9.76667 790.444 10.204C790.305 10.6307 790.225 11.1107 790.204 11.644V15.5H787.9ZM799.962 15.724C799.492 15.724 799.076 15.6333 798.714 15.452C798.351 15.26 798.068 14.988 797.866 14.636C797.663 14.284 797.562 13.8467 797.562 13.324C797.562 12.8653 797.647 12.4813 797.818 12.172C797.999 11.8627 798.26 11.612 798.602 11.42C798.943 11.228 799.364 11.068 799.866 10.94C800.367 10.812 800.938 10.7 801.578 10.604C801.919 10.5507 802.196 10.5027 802.41 10.46C802.634 10.4067 802.799 10.3267 802.906 10.22C803.012 10.1027 803.066 9.93733 803.066 9.724C803.066 9.42533 802.959 9.16933 802.746 8.956C802.532 8.74267 802.196 8.636 801.738 8.636C801.428 8.636 801.14 8.68933 800.874 8.796C800.618 8.90267 800.394 9.06267 800.202 9.276C800.02 9.48933 799.887 9.76133 799.802 10.092L797.77 9.468C797.898 9.03067 798.079 8.652 798.314 8.332C798.559 8.012 798.852 7.74533 799.194 7.532C799.535 7.308 799.924 7.14267 800.362 7.036C800.799 6.92933 801.274 6.876 801.786 6.876C802.607 6.876 803.274 7.00933 803.786 7.276C804.308 7.532 804.698 7.93733 804.954 8.492C805.21 9.036 805.338 9.74 805.338 10.604V12.044C805.338 12.4173 805.343 12.796 805.354 13.18C805.375 13.564 805.396 13.9533 805.418 14.348C805.45 14.732 805.482 15.116 805.514 15.5H803.482C803.439 15.2333 803.396 14.9293 803.354 14.588C803.322 14.236 803.295 13.884 803.274 13.532H802.986C802.836 13.9373 802.623 14.3053 802.346 14.636C802.068 14.9667 801.727 15.2333 801.322 15.436C800.927 15.628 800.474 15.724 799.962 15.724ZM800.938 14.06C801.14 14.06 801.343 14.0227 801.546 13.948C801.759 13.8733 801.962 13.772 802.154 13.644C802.356 13.5053 802.538 13.3347 802.698 13.132C802.868 12.9293 803.007 12.7 803.114 12.444L803.082 11.1L803.45 11.18C803.258 11.3187 803.034 11.4307 802.778 11.516C802.522 11.5907 802.255 11.6493 801.978 11.692C801.711 11.7347 801.444 11.7827 801.178 11.836C800.911 11.8893 800.671 11.9587 800.458 12.044C800.255 12.1293 800.09 12.2467 799.962 12.396C799.844 12.5347 799.786 12.732 799.786 12.988C799.786 13.3187 799.892 13.58 800.106 13.772C800.319 13.964 800.596 14.06 800.938 14.06ZM810.473 15.692C809.534 15.692 808.841 15.4467 808.393 14.956C807.956 14.4547 807.737 13.66 807.737 12.572V8.908H806.521L806.553 7.1H807.401C807.732 7.1 807.977 7.052 808.137 6.956C808.297 6.86 808.393 6.684 808.425 6.428L808.633 5.228H809.945V7.1H812.073V8.972H809.945V12.476C809.945 12.86 810.036 13.1373 810.217 13.308C810.398 13.4787 810.676 13.564 811.049 13.564C811.252 13.564 811.444 13.5427 811.625 13.5C811.817 13.4573 811.982 13.388 812.121 13.292V15.436C811.79 15.5427 811.486 15.612 811.209 15.644C810.932 15.676 810.686 15.692 810.473 15.692ZM813.116 8.14C813.308 7.64933 813.441 7.19067 813.516 6.764C813.601 6.33733 813.649 5.91067 813.66 5.484C813.681 5.04667 813.692 4.572 813.692 4.06H815.804C815.804 4.78533 815.761 5.40933 815.676 5.932C815.59 6.444 815.473 6.88133 815.324 7.244C815.185 7.596 815.041 7.89467 814.892 8.14H813.116ZM820.197 15.724C819.632 15.724 819.12 15.6707 818.661 15.564C818.203 15.4573 817.808 15.3027 817.477 15.1C817.147 14.8973 816.88 14.6573 816.677 14.38C816.475 14.092 816.341 13.772 816.277 13.42L818.037 12.7C818.08 12.9347 818.197 13.1533 818.389 13.356C818.581 13.5587 818.837 13.724 819.157 13.852C819.488 13.9693 819.883 14.028 820.341 14.028C820.832 14.028 821.211 13.9587 821.477 13.82C821.744 13.6707 821.877 13.4627 821.877 13.196C821.877 12.9933 821.803 12.8333 821.653 12.716C821.504 12.5987 821.285 12.4973 820.997 12.412C820.709 12.3267 820.363 12.2467 819.957 12.172C819.563 12.076 819.157 11.9747 818.741 11.868C818.336 11.7613 817.957 11.612 817.605 11.42C817.264 11.228 816.981 10.9773 816.757 10.668C816.544 10.348 816.437 9.94267 816.437 9.452C816.437 8.94 816.576 8.492 816.853 8.108C817.131 7.724 817.536 7.42533 818.069 7.212C818.603 6.988 819.253 6.876 820.021 6.876C820.715 6.876 821.323 6.972 821.845 7.164C822.368 7.34533 822.795 7.612 823.125 7.964C823.467 8.30533 823.696 8.716 823.813 9.196L821.941 9.82C821.899 9.564 821.792 9.34 821.621 9.148C821.461 8.956 821.243 8.812 820.965 8.716C820.699 8.62 820.384 8.572 820.021 8.572C819.563 8.572 819.205 8.64667 818.949 8.796C818.704 8.94533 818.581 9.14267 818.581 9.388C818.581 9.59067 818.661 9.756 818.821 9.884C818.992 10.012 819.227 10.1187 819.525 10.204C819.824 10.2787 820.176 10.3587 820.581 10.444C821.008 10.5293 821.424 10.6307 821.829 10.748C822.235 10.8547 822.597 10.9987 822.917 11.18C823.248 11.3613 823.509 11.6013 823.701 11.9C823.893 12.1987 823.989 12.5827 823.989 13.052C823.989 13.6067 823.84 14.0867 823.541 14.492C823.243 14.8867 822.811 15.1907 822.245 15.404C821.68 15.6173 820.997 15.724 820.197 15.724ZM829.34 15.5V4.94H832.348L837.132 12.412H837.308L837.164 4.94H839.404V15.5H836.684L831.628 7.676H831.452L831.596 15.5H829.34ZM845.538 15.724C844.845 15.724 844.226 15.628 843.682 15.436C843.149 15.244 842.695 14.9667 842.322 14.604C841.949 14.2413 841.661 13.7933 841.458 13.26C841.266 12.7267 841.17 12.124 841.17 11.452C841.17 10.7907 841.261 10.1827 841.442 9.628C841.634 9.06267 841.911 8.57733 842.274 8.172C842.637 7.756 843.079 7.436 843.602 7.212C844.125 6.988 844.717 6.876 845.378 6.876C846.018 6.876 846.589 6.98267 847.09 7.196C847.591 7.39867 848.007 7.708 848.338 8.124C848.679 8.54 848.925 9.052 849.074 9.66C849.234 10.2573 849.293 10.9453 849.25 11.724L842.658 11.788V10.524L847.922 10.476L847.106 11.116C847.181 10.5507 847.143 10.0867 846.994 9.724C846.845 9.36133 846.626 9.09467 846.338 8.924C846.061 8.75333 845.751 8.668 845.41 8.668C845.005 8.668 844.647 8.77467 844.338 8.988C844.029 9.20133 843.789 9.516 843.618 9.932C843.447 10.3373 843.362 10.828 843.362 11.404C843.362 12.3107 843.559 12.9773 843.954 13.404C844.359 13.8307 844.887 14.044 845.538 14.044C845.837 14.044 846.087 14.0067 846.29 13.932C846.503 13.8467 846.674 13.74 846.802 13.612C846.941 13.484 847.047 13.34 847.122 13.18C847.207 13.02 847.277 12.86 847.33 12.7L849.33 13.132C849.234 13.5267 849.09 13.884 848.898 14.204C848.717 14.5133 848.471 14.7853 848.162 15.02C847.853 15.244 847.479 15.4147 847.042 15.532C846.615 15.66 846.114 15.724 845.538 15.724ZM852.195 15.5L850.115 7.1H852.515L853.699 13.676H854.003L855.411 7.1H858.179L859.635 13.676H859.939L861.091 7.1H863.443L861.347 15.5H858.179L856.867 8.972H856.595L855.347 15.5H852.195ZM868.543 15.5V4.94H872.015L874.959 12.892H875.039L877.919 4.94H881.231V15.5H879.039L879.183 7.276H879.007L875.807 15.5H873.887L870.735 7.276H870.559L870.703 15.5H868.543ZM887.366 15.724C886.673 15.724 886.054 15.628 885.51 15.436C884.977 15.244 884.524 14.9667 884.15 14.604C883.777 14.2413 883.489 13.7933 883.286 13.26C883.094 12.7267 882.998 12.124 882.998 11.452C882.998 10.7907 883.089 10.1827 883.27 9.628C883.462 9.06267 883.74 8.57733 884.102 8.172C884.465 7.756 884.908 7.436 885.43 7.212C885.953 6.988 886.545 6.876 887.206 6.876C887.846 6.876 888.417 6.98267 888.918 7.196C889.42 7.39867 889.836 7.708 890.166 8.124C890.508 8.54 890.753 9.052 890.902 9.66C891.062 10.2573 891.121 10.9453 891.078 11.724L884.486 11.788V10.524L889.75 10.476L888.934 11.116C889.009 10.5507 888.972 10.0867 888.822 9.724C888.673 9.36133 888.454 9.09467 888.166 8.924C887.889 8.75333 887.58 8.668 887.238 8.668C886.833 8.668 886.476 8.77467 886.166 8.988C885.857 9.20133 885.617 9.516 885.446 9.932C885.276 10.3373 885.19 10.828 885.19 11.404C885.19 12.3107 885.388 12.9773 885.782 13.404C886.188 13.8307 886.716 14.044 887.366 14.044C887.665 14.044 887.916 14.0067 888.118 13.932C888.332 13.8467 888.502 13.74 888.63 13.612C888.769 13.484 888.876 13.34 888.95 13.18C889.036 13.02 889.105 12.86 889.158 12.7L891.158 13.132C891.062 13.5267 890.918 13.884 890.726 14.204C890.545 14.5133 890.3 14.7853 889.99 15.02C889.681 15.244 889.308 15.4147 888.87 15.532C888.444 15.66 887.942 15.724 887.366 15.724ZM897.055 12.108C897.001 11.6173 897.028 11.212 897.135 10.892C897.241 10.572 897.391 10.3053 897.583 10.092C897.775 9.87867 897.983 9.69733 898.207 9.548C898.441 9.388 898.66 9.23333 898.863 9.084C899.076 8.93467 899.247 8.764 899.375 8.572C899.513 8.36933 899.583 8.11867 899.583 7.82C899.583 7.41467 899.455 7.116 899.199 6.924C898.953 6.732 898.628 6.636 898.223 6.636C897.977 6.636 897.716 6.668 897.439 6.732C897.172 6.796 896.905 6.88667 896.639 7.004C896.372 7.12133 896.111 7.26 895.855 7.42L895.727 5.452C896.015 5.28133 896.313 5.14267 896.623 5.036C896.932 4.92933 897.247 4.84933 897.567 4.796C897.887 4.732 898.196 4.7 898.495 4.7C898.943 4.7 899.369 4.75867 899.775 4.876C900.18 4.99333 900.532 5.17467 900.831 5.42C901.14 5.65467 901.385 5.948 901.567 6.3C901.748 6.652 901.839 7.07333 901.839 7.564C901.839 8.012 901.764 8.38533 901.615 8.684C901.465 8.98267 901.273 9.23867 901.039 9.452C900.815 9.66533 900.575 9.85733 900.319 10.028C900.063 10.1987 899.823 10.3747 899.599 10.556C899.375 10.7373 899.193 10.9507 899.055 11.196C898.927 11.4413 898.873 11.7453 898.895 12.108H897.055ZM898.079 15.708C897.577 15.708 897.199 15.6013 896.943 15.388C896.697 15.1747 896.575 14.844 896.575 14.396C896.575 13.9373 896.697 13.6013 896.943 13.388C897.199 13.1747 897.577 13.068 898.079 13.068C898.591 13.068 898.969 13.1747 899.215 13.388C899.471 13.6013 899.599 13.9373 899.599 14.396C899.599 15.2707 899.092 15.708 898.079 15.708Z" fill="#55ADBD"/>
<path d="M943.658 5.02773C943.459 4.12464 943.091 3.28492 942.555 2.52443C942.014 1.76393 941.33 1.14603 940.513 0.691841C939.686 0.232374 938.767 0 937.772 0C936.689 0 935.755 0.316873 934.989 0.945339C934.469 1.36784 933.953 1.90124 933.458 2.53499C932.968 1.92237 932.442 1.39424 931.891 0.961183C930.293 -0.290467 928.051 -0.237655 926.397 0.675997C925.596 1.11434 924.907 1.72696 924.366 2.49802C923.829 3.25323 923.452 4.09823 923.232 5.04885C922.987 6.39028 923.008 7.67362 923.293 8.89886C923.722 10.3512 924.498 11.7402 925.611 13.0341C926.474 14.0269 927.434 15.004 928.465 15.9493C929.491 16.8841 930.905 18.0882 932.667 19.53L933.06 19.8521C933.177 19.9525 933.315 20 933.458 20C933.606 20 933.754 19.9472 933.871 19.8416C934.326 19.4402 934.79 19.023 935.26 18.5952C935.719 18.178 936.199 17.7608 936.705 17.3383C937.889 16.3137 938.834 15.474 939.528 14.8244C940.248 14.159 940.84 13.5516 941.279 13.0288C942.417 11.6926 943.199 10.2984 943.602 8.86718C943.883 7.73171 943.903 6.45366 943.658 5.02245V5.02773ZM940.105 9.28134C939.844 10.2161 939.324 11.1117 938.578 11.9884C938.292 12.3317 937.904 12.7278 937.435 13.1661C936.975 13.5886 936.363 14.1378 935.587 14.8086C935.255 15.0832 934.943 15.3578 934.642 15.6324C934.336 15.9123 934.03 16.187 933.734 16.4457C933.657 16.5144 933.56 16.5514 933.463 16.5514C933.366 16.5514 933.279 16.5197 933.203 16.4563L932.947 16.2451C931.794 15.2997 930.87 14.5128 930.201 13.9002C929.522 13.2823 928.894 12.6433 928.332 11.9937C927.602 11.1487 927.097 10.235 926.816 9.28439C926.627 8.48165 926.612 7.64193 926.775 6.76525C926.918 6.14207 927.168 5.58754 927.515 5.09638C927.873 4.59467 928.322 4.19329 928.848 3.90283C929.93 3.30605 931.395 3.26908 932.442 4.08767C932.804 4.37285 933.146 4.71613 933.468 5.11751C933.795 4.70557 934.132 4.35173 934.474 4.07711C934.974 3.66517 935.587 3.4592 936.291 3.4592C936.94 3.4592 937.542 3.61236 938.083 3.91339C938.619 4.21442 939.068 4.61579 939.421 5.11223C939.773 5.60866 940.013 6.15791 940.141 6.74941C940.299 7.68418 940.289 8.5239 940.105 9.26327V9.28134Z" fill="#55ADBD"/>
<path d="M937.079 7.01886C936.865 6.71783 936.589 6.46961 936.267 6.29005C935.936 6.10521 935.568 6.01542 935.175 6.01542C934.746 6.01542 934.373 6.14217 934.067 6.39039C933.858 6.55939 933.654 6.77064 933.454 7.02414C933.26 6.7812 933.051 6.56995 932.832 6.39567C932.194 5.89396 931.3 5.92036 930.642 6.28477C930.32 6.45905 930.049 6.70198 929.83 7.01358C929.615 7.31461 929.467 7.6526 929.381 8.02757C929.284 8.56098 929.289 9.07325 929.406 9.56441C929.575 10.1453 929.886 10.6999 930.33 11.2122C930.672 11.6082 931.055 11.9991 931.469 12.374C931.877 12.749 932.444 13.2296 933.143 13.8L933.301 13.9267C933.347 13.9637 933.403 13.9848 933.46 13.9848C933.521 13.9848 933.577 13.9637 933.623 13.9214C933.802 13.763 933.991 13.594 934.174 13.425C934.358 13.256 934.547 13.0923 934.751 12.9233C935.226 12.5113 935.599 12.1786 935.879 11.9198C936.165 11.6558 936.4 11.4128 936.579 11.2016C937.033 10.6682 937.345 10.1137 937.503 9.54328C937.615 9.0891 937.625 8.5821 937.523 8.01173C937.447 7.6526 937.299 7.31461 937.084 7.01358L937.079 7.01886ZM935.006 10.2827C934.276 10.7052 933.924 11.096 933.557 11.9251C933.511 12.0255 933.388 12.0255 933.342 11.9251C933.112 11.4128 932.893 11.0643 932.582 10.7791C932.541 10.7474 932.5 10.7157 932.464 10.6735C932.301 10.5362 932.112 10.4094 931.892 10.2827C931.806 10.2351 931.806 10.0925 931.892 10.045C932.622 9.6225 932.975 9.23169 933.342 8.40254C933.388 8.3022 933.511 8.3022 933.557 8.40254C933.929 9.23169 934.276 9.6225 935.006 10.045C935.093 10.0925 935.093 10.2351 935.006 10.2827Z" fill="#55ADBD"/>
</svg>
