<svg width="30" height="30" viewBox="0 0 30 30" fill="none" xmlns="http://www.w3.org/2000/svg">
<path d="M20.8346 7.9974H9.16795M20.8346 7.9974H22.3615C24.7948 7.9974 26.0114 7.9974 26.707 8.77458C27.4027 9.55176 27.2683 10.761 26.9996 13.1794L26.6544 16.2858C26.1059 21.2223 25.8317 23.6906 24.1706 25.1773C22.5095 26.6641 20.0068 26.6641 15.0013 26.6641C9.99582 26.6641 7.49309 26.6641 5.83199 25.1773C4.1709 23.6906 3.89664 21.2223 3.34814 16.2858L3.00299 13.1794C2.73428 10.761 2.59992 9.55176 3.29553 8.77458C3.99114 7.9974 5.2078 7.9974 7.64112 7.9974H9.16795M20.8346 7.9974C20.8346 4.77573 18.2229 2.16406 15.0013 2.16406C11.8592 2.16406 9.29731 4.64834 9.1727 7.75988C9.16954 7.83866 9.16795 7.91784 9.16795 7.9974" stroke="#55ADBD" stroke-width="2"/>
<path d="M22 12.6667C22 13.311 21.4777 13.8333 20.8333 13.8333C20.189 13.8333 19.6667 13.311 19.6667 12.6667C19.6667 12.0223 20.189 11.5 20.8333 11.5C21.4777 11.5 22 12.0223 22 12.6667Z" fill="#55ADBD"/>
<path d="M10.3333 12.6667C10.3333 13.311 9.811 13.8333 9.16667 13.8333C8.52233 13.8333 8 13.311 8 12.6667C8 12.0223 8.52233 11.5 9.16667 11.5C9.811 11.5 10.3333 12.0223 10.3333 12.6667Z" fill="#55ADBD"/>
</svg>
