<svg width="30" height="30" viewBox="0 0 30 30" fill="none" xmlns="http://www.w3.org/2000/svg">
<path fill-rule="evenodd" clip-rule="evenodd" d="M12.5509 2C10.6436 2 9.09738 3.60345 9.09738 5.5814C9.09738 6.16759 9.23319 6.72089 9.47395 7.2093H5.6439C3.3898 7.2093 1.5625 9.10428 1.5625 11.4419C1.5625 12.6282 2.03381 13.7004 2.7904 14.468C2.77218 14.934 2.78291 15.3842 2.796 15.9331C2.80641 16.3698 2.81831 16.8689 2.81831 17.4884V17.5232C2.81831 19.083 2.81831 20.3013 2.88005 21.2844C2.94275 22.2828 3.072 23.1076 3.36226 23.8689C4.0879 25.7722 5.48547 27.2985 7.26142 28.0977C7.97644 28.4194 8.74962 28.5616 9.676 28.6303C10.5853 28.6977 11.7103 28.6977 13.1422 28.6977H16.9828C18.4147 28.6977 19.5397 28.6977 20.449 28.6303C21.3754 28.5616 22.1486 28.4194 22.8636 28.0977C24.6395 27.2985 26.0371 25.7722 26.7627 23.8689C27.053 23.1076 27.1822 22.2828 27.2449 21.2844C27.3067 20.3013 27.3067 19.0831 27.3067 17.5234V17.4507C27.3067 16.0336 27.3067 15.3163 27.2597 14.5421C28.06 13.7702 28.5625 12.6669 28.5625 11.4419C28.5625 9.10428 26.7352 7.2093 24.4811 7.2093H20.6511C20.8918 6.72089 21.0276 6.16759 21.0276 5.5814C21.0276 3.60345 19.4814 2 17.5741 2C16.5845 2 15.6921 2.43165 15.0625 3.1233C14.4329 2.43165 13.5405 2 12.5509 2ZM12.5509 3.95349C13.4178 3.95349 14.1206 4.68233 14.1206 5.5814V7.2093H12.5509C11.6839 7.2093 10.9811 6.48046 10.9811 5.5814C10.9811 4.68233 11.6839 3.95349 12.5509 3.95349ZM19.1439 5.5814C19.1439 6.48046 18.4411 7.2093 17.5741 7.2093H16.0044V5.5814C16.0044 4.68233 16.7072 3.95349 17.5741 3.95349C18.4411 3.95349 19.1439 4.68233 19.1439 5.5814ZM3.44622 11.4419C3.44622 10.1832 4.43015 9.16279 5.6439 9.16279H14.1206V13.7209H5.6439C5.16454 13.7209 4.72356 13.5629 4.3631 13.2942C3.80596 12.8788 3.44622 12.2039 3.44622 11.4419ZM26.6788 11.4419C26.6788 10.1832 25.6948 9.16279 24.4811 9.16279H16.0044V13.7209H24.4811C24.9519 13.7209 25.3855 13.5685 25.7423 13.3086C26.3105 12.8947 26.6788 12.2128 26.6788 11.4419ZM4.67193 15.5534C4.98366 15.6325 5.30926 15.6744 5.6439 15.6744H14.1206L14.1206 26.7442H13.1788C11.7024 26.7442 10.6446 26.7436 9.8103 26.6818C8.98536 26.6206 8.45017 26.5031 8.01128 26.3056C6.71013 25.7201 5.66296 24.5904 5.11402 23.1506C4.92631 22.6583 4.81658 22.0617 4.75979 21.1574C4.7025 20.2452 4.70203 19.0904 4.70203 17.4884C4.70203 16.7089 4.68788 16.1669 4.67658 15.7339L4.67193 15.5534ZM16.0044 15.6744L16.0044 26.7442H16.9462C18.4226 26.7442 19.4804 26.7436 20.3147 26.6818C21.1396 26.6206 21.6748 26.5031 22.1137 26.3056C23.4149 25.7201 24.462 24.5904 25.011 23.1506C25.1987 22.6583 25.3084 22.0617 25.3652 21.1574C25.4225 20.2452 25.423 19.0904 25.423 17.4884C25.423 16.6282 25.4228 16.0433 25.4138 15.5632C25.114 15.6359 24.8017 15.6744 24.4811 15.6744H16.0044Z" fill="#55ADBD"/>
</svg>
