<svg width="30" height="30" viewBox="0 0 30 30" fill="none" xmlns="http://www.w3.org/2000/svg">
<path fill-rule="evenodd" clip-rule="evenodd" d="M15.2624 1.56733C15.0868 1.56089 14.911 1.56089 14.7354 1.56733C13.5762 1.60986 12.5324 2.00404 11.3878 2.66022C10.2725 3.29967 8.98846 4.2326 7.35923 5.41631L7.27067 5.48066C5.64142 6.66436 4.35735 7.59728 3.40453 8.46043C2.4268 9.34616 1.72934 10.2171 1.33068 11.3064C1.27029 11.4715 1.21597 11.6386 1.16783 11.8076C0.850055 12.9233 0.902383 14.0378 1.17277 15.3291C1.43627 16.5874 1.92674 18.0969 2.54907 20.0122L2.5829 20.1163C3.20519 22.0316 3.69566 23.5411 4.22212 24.714C4.76236 25.9176 5.37515 26.8501 6.28798 27.5659C6.42627 27.6743 6.56848 27.7776 6.71433 27.8756C7.63271 28.4927 8.65431 28.7894 9.88617 28.9386C11.1966 29.0974 12.835 29.0973 14.9362 29.0973H15.0616C17.1628 29.0973 18.8012 29.0974 20.1117 28.9386C21.3435 28.7894 22.3651 28.4927 23.2835 27.8756C23.4293 27.7776 23.5716 27.6743 23.7098 27.5659C24.6227 26.8501 25.2355 25.9176 25.7757 24.714C26.3022 23.5411 26.7926 22.0316 27.4149 20.1163L27.4488 20.0122C28.0711 18.097 28.5616 16.5874 28.825 15.3291C29.0954 14.0378 29.1478 12.9233 28.83 11.8076C28.7819 11.6386 28.7275 11.4715 28.6671 11.3064C28.2685 10.2171 27.571 9.34616 26.5933 8.46043C25.6405 7.59728 24.3564 6.66436 22.7271 5.48065L22.6386 5.41629C21.0093 4.23259 19.7253 3.29967 18.61 2.66022C17.4655 2.00404 16.4216 1.60986 15.2624 1.56733ZM14.8042 3.44107C14.9339 3.43631 15.0639 3.43631 15.1937 3.44107C15.938 3.46838 16.6793 3.71459 17.6774 4.28684C18.6946 4.87004 19.8975 5.74245 21.5808 6.9654C23.264 8.18835 24.4655 9.06282 25.3345 9.85003C26.1871 10.6225 26.6504 11.2514 26.9063 11.9508C26.951 12.0728 26.9911 12.1964 27.0267 12.3213C27.2307 13.0376 27.2257 13.8187 26.9898 14.9448C26.7495 16.0924 26.2915 17.5061 25.6486 19.4849C25.0057 21.4636 24.5453 22.8765 24.0651 23.9462C23.594 24.9959 23.139 25.6308 22.5529 26.0904C22.4507 26.1705 22.3456 26.2469 22.2377 26.3193C21.8683 26.5676 21.4539 26.7519 20.9364 26.8864V23.5246C20.9364 20.2454 18.2781 17.5871 14.9989 17.5871C11.7197 17.5871 9.06141 20.2454 9.06141 23.5246V26.8864C8.54396 26.7519 8.1295 26.5676 7.76007 26.3193C7.65227 26.2469 7.54715 26.1705 7.44495 26.0904C6.85885 25.6308 6.40385 24.9959 5.93271 23.9462C5.45256 22.8765 4.99215 21.4636 4.34921 19.4849C3.70627 17.5061 3.24828 16.0924 3.00797 14.9448C2.77216 13.8187 2.76707 13.0376 2.9711 12.3213C3.00668 12.1964 3.04683 12.0728 3.09147 11.9508C3.34744 11.2514 3.81068 10.6225 4.66336 9.85003C5.53235 9.06282 6.73379 8.18835 8.41703 6.9654C10.1003 5.74245 11.3032 4.87004 12.3204 4.28684C13.3186 3.71459 14.0599 3.46838 14.8042 3.44107ZM14.9989 19.4621C17.2426 19.4621 19.0614 21.2809 19.0614 23.5246V27.1522C18.0072 27.2213 16.703 27.2223 14.9989 27.2223C13.2948 27.2223 11.9907 27.2213 10.9364 27.1522V23.5246C10.9364 21.2809 12.7553 19.4621 14.9989 19.4621Z" fill="#55ADBD"/>
</svg>
